<svg width="1147" height="691" viewBox="0 0 1147 691" fill="none" xmlns="http://www.w3.org/2000/svg">
<ellipse cx="254.687" cy="491.026" rx="4.64301" ry="4.45778" fill="#EABE65"/>
<ellipse cx="805.871" cy="546.183" rx="4.64301" ry="4.13937" fill="#EABE65"/>
<path d="M0.682129 228.621L1146.84 228.769L1146.79 660.448C1146.79 660.448 1046.62 682.373 981.293 688.122C842.707 700.319 626.106 660.381 626.106 660.381C626.106 660.381 378.777 631.14 220.177 638.362C134.071 642.284 0.626544 660.3 0.626544 660.3L0.682129 228.621Z" fill="#FFD787"/>
<path d="M1.31412 17.7554L83.1885 5.9846C83.1885 5.9846 270.802 -13.414 479.623 17.817C688.444 49.048 780.808 1.88623 935.394 6.09426C1089.98 10.3023 1146.87 32.8681 1146.87 32.8681L1146.84 282.186L1.28009 282.038L1.31412 17.7554Z" fill="#FFD787"/>
<path d="M197.43 157.977C198.186 157.564 199.087 158.184 198.923 159.004L197.508 166.088C197.441 166.422 197.558 166.765 197.817 166.992L203.35 171.84C203.991 172.402 203.641 173.439 202.774 173.544L195.366 174.434C195.011 174.477 194.703 174.696 194.554 175.011L191.466 181.551C191.105 182.316 189.986 182.334 189.618 181.581L186.424 175.046C186.276 174.742 185.975 174.535 185.627 174.498L178.155 173.695C177.294 173.602 176.952 172.579 177.59 172.005L183.048 167.095C183.311 166.859 183.428 166.508 183.356 166.172L181.852 159.151C181.677 158.329 182.587 157.676 183.348 158.079L189.908 161.55C190.215 161.713 190.59 161.71 190.899 161.541L197.43 157.977Z" fill="#211C1C"/>
<path d="M115.657 604.292C116.413 603.88 117.313 604.499 117.15 605.319L116.341 609.366C116.274 609.701 116.391 610.043 116.651 610.27L119.804 613.033C120.446 613.596 120.095 614.633 119.228 614.737L115.016 615.244C114.661 615.286 114.353 615.505 114.204 615.82L112.446 619.544C112.085 620.309 110.966 620.327 110.598 619.574L108.773 615.838C108.624 615.534 108.323 615.327 107.976 615.29L103.704 614.831C102.843 614.738 102.502 613.716 103.14 613.142L106.247 610.346C106.51 610.11 106.627 609.759 106.555 609.422L105.7 605.431C105.524 604.609 106.435 603.956 107.195 604.359L110.934 606.338C111.242 606.5 111.617 606.497 111.926 606.329L115.657 604.292Z" fill="#211C1C"/>
<path d="M1022.52 461.849C1023.28 461.436 1024.18 462.056 1024.01 462.876L1022.6 469.96C1022.53 470.294 1022.65 470.637 1022.91 470.864L1028.44 475.712C1029.08 476.274 1028.73 477.312 1027.86 477.416L1020.46 478.306C1020.1 478.349 1019.79 478.568 1019.64 478.883L1016.56 485.423C1016.19 486.188 1015.08 486.206 1014.71 485.453L1011.51 478.918C1011.37 478.614 1011.06 478.407 1010.72 478.37L1003.24 477.567C1002.38 477.474 1002.04 476.451 1002.68 475.877L1008.14 470.967C1008.4 470.731 1008.52 470.38 1008.44 470.044L1006.94 463.023C1006.77 462.201 1007.68 461.549 1008.44 461.951L1015 465.422C1015.3 465.585 1015.68 465.582 1015.99 465.413L1022.52 461.849Z" fill="#211C1C"/>
<path d="M809.507 198.81C810.263 198.398 811.163 199.018 811 199.837L810.018 204.749C809.951 205.083 810.068 205.426 810.328 205.653L814.158 209.009C814.8 209.572 814.449 210.609 813.582 210.713L808.461 211.329C808.106 211.372 807.798 211.591 807.649 211.906L805.512 216.431C805.151 217.196 804.033 217.214 803.665 216.461L801.449 211.928C801.301 211.624 801 211.417 800.652 211.38L795.47 210.823C794.609 210.731 794.267 209.708 794.905 209.134L798.682 205.736C798.945 205.5 799.061 205.149 798.989 204.813L797.95 199.959C797.774 199.137 798.685 198.485 799.446 198.887L803.987 201.291C804.295 201.453 804.67 201.45 804.979 201.282L809.507 198.81Z" fill="#211C1C"/>
<ellipse cx="840.418" cy="116.011" rx="7.95945" ry="7.64191" fill="#EABE65"/>
<ellipse cx="970.378" cy="457.367" rx="7.95945" ry="7.64191" fill="#EABE65"/>
<ellipse cx="1007.55" cy="211.557" rx="7.95945" ry="7.64191" fill="#EABE65"/>
<ellipse cx="156.523" cy="472.546" rx="7.95945" ry="7.64191" fill="#EABE65"/>
</svg>
