<svg xmlns="http://www.w3.org/2000/svg" version="1.1" xmlns:xlink="http://www.w3.org/1999/xlink" width="130" height="130" x="0" y="0" viewBox="0 0 1707 1707" style="enable-background:new 0 0 512 512" xml:space="preserve" fill-rule="evenodd" class=""><g><path fill="#4bafc7" d="M853 1707C383 1707 0 1324 0 853 0 383 383 0 853 0c471 0 854 383 854 853 0 471-383 854-854 854z" opacity="1" data-original="#4bafc7" class=""></path><g fill="#c7d357"><path d="M1134 47c288 101 506 352 560 659-5 0-10 0-15 1-6 0-12-2-17-6l-64-59c-15 3-29 9-31 13 0 1 0 6 7 14l70 45c8 5 11 15 8 24l-29 86c-1 4-4 8-7 10-1 1-40 31-84 31-19 0-36-5-51-16-28-20-47-41-58-55-8 7-13 11-13 13s3 7 14 15c17 14 28 29 36 41 13 20 20 30 54 30 17 0 37-3 64-8 9-2 18 2 22 10 5 8 4 18-3 24l-157 169v149c0 6-3 12-8 16l-45 38v64c0 5-2 10-6 14l-81 85c-4 4-9 7-15 7h-98c-3 0-6-1-8-2-31-13-86-60-71-142v-188l-40-34c-4-4-6-9-7-15l-2-53H870c-5 0-11-2-14-6L749 918c-4-4-6-10-6-15V794c0-5 2-10 5-14l74-87 12-38c1-3 3-6 5-8 3-3 67-66 161-66 24 0 48 4 71 12 24-39 38-77 33-86-11-18-19-39-25-56l-89 53c-7 4-16 4-23 0l-77-51c-7-4-10-13-9-21l16-77c1-5 4-9 7-12l69-58c4-3 8-5 12-5l173-16c34-20 65-48 65-59 0-9-30-26-51-26h-2c-5 5-11 7-18 7-8 0-28 0-57-68-2-4-2-7-2-11 1-2 6-36 41-60zM279 223C426 88 621 5 834 0l-1 14 23 10c5 2 9 6 11 11l12 30c3 5 2 12 0 17l-24 49c-4 9-15 14-25 11l-56-18c-4-2-7-4-10-7l-29-36-40-11-59 19-34 35c-1 2-2 3-4 4l-22 13 8 25c1 4 1 9-1 13l-19 49c-2 6-7 11-13 13 0 0-33 12-29 34 5 28 12 38 13 39 5 5 7 12 6 19s-6 13-13 16l-52 21c-2 1-5 1-8 1-2 0-4 0-7-1l-86-30c-3-1-6-3-9-6 0-1-45-55-87-111zM231 1436C88 1283 0 1078 0 853c0-204 72-392 193-539l80 60c1 1 2 2 2 3l28 30 61-26c5-2 11-2 16 0l60 23c6 3 10 7 12 12l39 102c4 10 0 21-9 26l-104 57c-3 2-7 3-11 2l-100-7-81 50-59 122 5 104v5l-13 67 59 29c4 3 8 6 10 10l45 96c3 6 3 12 0 18-1 3-35 81 18 115 58 39 86 39 87 39 8 0 14 3 19 8 4 6 5 14 2 21l-41 105c-2 4-5 8-10 10z" fill="#c7d357" opacity="1" data-original="#c7d357" class=""></path></g><path fill="#449eb3" d="M853 1707C383 1707 0 1324 0 853c0-87 13-171 38-250 178 395 543 854 1286 962-135 89-297 142-471 142z" opacity="1" data-original="#449eb3"></path><path fill="#b3be4e" d="M231 1436C88 1283 0 1078 0 853c0-87 13-171 38-250 25 57 55 116 89 175l5 94v5l-13 67 59 29c4 3 8 6 10 10l45 96c3 6 3 12 0 18-1 3-35 81 18 115 58 39 86 39 87 39 8 0 14 3 19 8 4 6 5 14 2 21l-41 105c-2 4-5 8-10 10z" opacity="1" data-original="#b3be4e"></path></g></svg>