<svg xmlns="http://www.w3.org/2000/svg" version="1.1" xmlns:xlink="http://www.w3.org/1999/xlink" width="40" height="40" x="0" y="0" viewBox="0 0 497.005 497.005" style="enable-background:new 0 0 512 512" xml:space="preserve" class=""><circle r="248.5025" cx="248.5025" cy="248.5025" fill="#fafdff" shape="circle" transform="matrix(1,0,0,1,0,0)"></circle><g transform="matrix(0.9200000000000007,0,0,0.9200000000000007,19.88020629882834,19.880198975391608)"><path fill="#218fac" d="M295.977 4.552A249.71 249.71 0 0 0 248.5.002C111.257.003 0 111.26 0 248.503s111.257 248.5 248.5 248.5c16.239 0 32.107-1.576 47.477-4.55C410.507 470.292 497 369.507 497 248.503S410.507 26.713 295.977 4.552z" opacity="1" data-original="#7ce3ff" class=""></path><path fill="#218fac" d="M148 248.503c0-106.052 60.041-198.069 147.977-243.95A249.71 249.71 0 0 0 248.5.003C111.257.003 0 111.26 0 248.503s111.257 248.5 248.5 248.5c16.239 0 32.107-1.576 47.477-4.55C208.041 446.571 148 354.555 148 248.503z" opacity="1" data-original="#55dafe" class=""></path><g fill="#00ce8e"><path d="m296.957 4.744.001 15.817c-.002 39.998 27.105 83.812 66.784 83.812 11.837 0 21.433 9.595 21.433 21.433 0 11.782-9.592 21.433-21.433 21.433-41.199 0-38.335-2.358-54.183 13.49-16.29 16.29-2.589 42.422 15.101 42.422 24.343.001 23.484-.245 37.926-14.686a45.295 45.295 0 0 1 31.467-13.255v-.001.001c1.471-.022-9.654-.014 91.953-.014C459.37 88.797 386.882 22.52 296.957 4.744zM333.18 231.641c-35.591 0-64.49 28.876-64.489 64.489v25.285c0 21.8 8.659 42.705 24.073 58.118 14.973 14.974 23.814 34.863 24.092 58.838.197 16.855 7.252 32.082 18.538 42.995 101.021-37.712 168.547-137.722 161.043-249.725H333.18z" fill="#89d4f3" opacity="1" data-original="#00ce8e" class=""></path></g><path fill="#89d4f3" d="m228.632 98.586-21.038-21.038h-53.831v114.727l13.636-13.636c16.255-16.256 43.824-4.227 43.824 19.184 0 10.837 8.785 19.621 19.621 19.621 10.837 0 19.622-8.785 19.621-19.621v-46.521a74.534 74.534 0 0 0-21.833-52.716z" opacity="1" data-original="#00ce8e" class=""></path><path fill="#89d4f3" d="M150.234 20.188C72.56 53.661 15.367 125.614 2.656 212.034l60.297 60.283c9.836 9.836 9.836 25.782 0 35.618l-41.569 41.569c19.281 43.293 50.573 80.05 89.648 106.046l17.734-17.734c39.51-39.512 39.531-103.641 0-143.174-12.288-12.287-23.154-20.428-23.154-38.685a37.5 37.5 0 0 1 10.982-26.514l37.17-37.169c8.876-42.71 27.651-81.79 53.831-114.727z" opacity="1" data-original="#00b27a" class=""></path><ellipse cx="174.589" cy="306.622" fill="#ff8e9e" rx="25" ry="19.909" opacity="0" data-original="#ff8e9e" class=""></ellipse><ellipse cx="322.411" cy="306.622" fill="#ff8e9e" rx="25" ry="19.909" opacity="0" data-original="#ff8e9e" class=""></ellipse><g fill="#313d40"><path d="M186.051 274.618a7.499 7.499 0 0 0-7.5 7.5v12c0 4.143 3.357 7.5 7.5 7.5s7.5-3.357 7.5-7.5v-12a7.5 7.5 0 0 0-7.5-7.5zM310.948 274.618a7.499 7.499 0 0 0-7.5 7.5v12c0 4.143 3.357 7.5 7.5 7.5s7.5-3.357 7.5-7.5v-12c0-4.143-3.357-7.5-7.5-7.5zM269.891 288.106a7.497 7.497 0 0 0-10.581.728c-2.729 3.132-6.669 4.928-10.81 4.928s-8.08-1.796-10.81-4.928a7.5 7.5 0 1 0-11.309 9.853c5.578 6.402 13.641 10.074 22.118 10.074s16.54-3.672 22.118-10.074a7.497 7.497 0 0 0-.726-10.581z" fill="#313d40" opacity="0" data-original="#313d40" class=""></path></g></g></svg>