<svg xmlns="http://www.w3.org/2000/svg" width="1083" height="676" viewBox="0 0 1083 676" fill="none">
  <path d="M44.9228 354.309C0.52582 301.903 -5.10492 254.711 3.39633 188.89C27.5501 1.8784 708.912 -67.6231 581 80C561.941 101.996 511.95 127.042 487.999 144.593C473.311 155.357 421.269 176.635 419.65 193.779C417.576 215.742 438.324 213.477 462.107 209.806C617.996 185.744 747.45 26.3424 896.115 91.2351C1009.89 140.897 1095.96 219.323 1080.19 333.653C1067.31 427.036 952.017 462.03 867.764 516.152C675.232 639.829 166 778 216 566C225.002 527.832 321.552 482.369 307.306 445.512C272.047 354.297 109.724 430.801 44.9228 354.309Z" fill="#B4232D"/>
</svg>