<svg xmlns="http://www.w3.org/2000/svg" width="115" height="98" viewBox="0 0 115 98" fill="none">
  <path d="M62.5968 3.32833L54.1436 18.6821C53.9678 19.0014 53.6321 19.1998 53.2676 19.1998H34.9836C34.0547 19.1998 33.6277 20.356 34.3337 20.9597L46.98 31.7756C47.2751 32.0281 47.3974 32.4285 47.2936 32.8027L42.5971 49.7438C42.3483 50.6414 43.3537 51.3618 44.1235 50.8376L60.1203 39.9462C60.4447 39.7253 60.8684 39.7146 61.2035 39.9189L78.8098 50.6504C79.6552 51.1657 80.6551 50.2708 80.2365 49.3736L73.6092 35.1723C73.399 34.7219 73.5516 34.1854 73.9674 33.913L88.5474 24.3606C89.3012 23.8667 89.0684 22.706 88.1825 22.541L70.8028 19.3036C70.457 19.2392 70.1706 18.9979 70.0483 18.6682L64.4104 3.46297C64.1128 2.66022 63.0097 2.57833 62.5968 3.32833Z" stroke="#FFD787" stroke-width="5" stroke-linecap="round"/>
  <path d="M30.9548 50.2867L22.6429 57.8145C22.3727 58.0592 21.9908 58.1375 21.6461 58.0188L10.7033 54.2512C9.82498 53.9488 9.04486 54.903 9.51581 55.7037L14.8018 64.6912C14.9987 65.0259 14.984 65.4444 14.7641 65.7645L8.49635 74.8863C7.9689 75.6539 8.68499 76.6623 9.58358 76.4173L21.4373 73.1856C21.816 73.0823 22.22 73.2102 22.4704 73.5124L30.7498 83.5069C31.3813 84.2693 32.6181 83.7487 32.5143 82.7641L31.5183 73.3162C31.4662 72.8219 31.7851 72.3643 32.2669 72.2421L42.8981 69.5454C43.7716 69.3239 43.9294 68.1507 43.1454 67.7062L33.3747 62.1668C33.0687 61.9934 32.8764 61.672 32.8681 61.3204L32.6258 51.0045C32.6057 50.1486 31.5894 49.712 30.9548 50.2867Z" stroke="#FFD787" stroke-width="5" stroke-linecap="round"/>
  <path d="M90.6344 53.5379L81.4473 64.2813C81.2104 64.5584 80.8415 64.6846 80.4845 64.6107L66.1103 61.6341C65.2006 61.4457 64.5481 62.4913 65.1169 63.2257L73.2632 73.7424C73.5011 74.0494 73.5396 74.4664 73.3621 74.8118L66.9267 87.337C66.501 88.1655 67.3394 89.0748 68.1996 88.7176L82.5671 82.7518C82.9296 82.6013 83.3466 82.6767 83.6334 82.9447L95.6992 94.2209C96.4225 94.8969 97.5831 94.2234 97.3551 93.26L94.5088 81.2357C94.3943 80.752 94.6524 80.2576 95.1148 80.0751L108.1 74.9518C108.938 74.621 108.945 73.4373 108.111 73.096L94.9543 67.7131C94.6288 67.5799 94.3972 67.2855 94.3443 66.9378L92.383 54.0375C92.2543 53.191 91.1908 52.8872 90.6344 53.5379Z" stroke="#FFD787" stroke-width="5" stroke-linecap="round"/>
</svg>