<svg xmlns="http://www.w3.org/2000/svg" version="1.1" xmlns:xlink="http://www.w3.org/1999/xlink" width="100" height="100" x="0" y="0" viewBox="0 0 512 512" style="enable-background:new 0 0 512 512" xml:space="preserve" class=""><g><path fill="#fed2a4" d="m167.697 352.06-37.222 64.47.917 1.684 34.073 19.673 2.138.079 37.222-64.471zM359.948 264.959h-11.179v50.044a4.065 4.065 0 0 1-4.06 4.06h-4.762v58.375l1.369 1h40.283l1.22-1v-89.611c-.002-12.629-10.241-22.868-22.871-22.868z" opacity="1" data-original="#fed2a4"></path><path fill="#ffbd86" d="M460.864 112.396 436.88 98.549c-5.898-3.405-13.44-1.384-16.846 4.514l-4.625 8.01c-2.671 4.627-1.996 10.257 1.265 14.114 1.402 1.658 1.666 3.993.58 5.874l-25.828 44.736-30.769-17.764c3.269 10.825 2.249 22.92-3.838 33.462l-5.131 8.887 32.028 18.492c8.204 4.736 18.693 1.926 23.43-6.278l38.477-66.644c.89-1.541 2.521-2.556 4.299-2.535a12.323 12.323 0 0 0 10.831-6.163l4.624-8.01c3.407-5.9 1.386-13.443-4.513-16.848z" opacity="1" data-original="#ffbd86"></path><path fill="#f6a96c" d="m393.028 206.699-33.878-19.915a42.347 42.347 0 0 1-2.331 4.709l-5.131 8.887 32.028 18.492c8.204 4.736 18.693 1.926 23.43-6.278l3.608-6.249c-5.212 3.284-12.02 3.648-17.726.354z" opacity="1" data-original="#f6a96c"></path><path fill="#99e6fc" d="M184.437 127.913H60.372a7.613 7.613 0 0 1 0-15.226h124.064a7.613 7.613 0 0 1 .001 15.226zM151.276 169.078H44.936a7.613 7.613 0 0 1 0-15.226h106.341a7.613 7.613 0 1 1-.001 15.226zM136.412 210.242H81.526a7.613 7.613 0 0 1 0-15.226h54.886a7.613 7.613 0 0 1 0 15.226z" opacity="1" data-original="#99e6fc"></path><path fill="#fed2a4" d="m437.471 71.732-2.663-2.71-49.653-28.667a6.094 6.094 0 0 0-7.64 1.277l-8.94 10.276-5.785-3.34a13.944 13.944 0 0 0-6.962-1.871 14 14 0 0 0-12.092 6.976l-4.219 7.307a13.89 13.89 0 0 0 2.361 16.964L327.054 92.35l-.026 1.44-13.657 23.655 27.927 16.124a43.44 43.44 0 0 1 1.755 1.073l5.679-9.837a3.43 3.43 0 0 1 4.686-1.255l7.861 4.539c16.818 9.71 37.988 5.021 49.265-10.231 1.049-1.419 2.973-1.86 4.501-.978l8.283 4.782c2.425 1.4 5.416-.539 5.127-3.324l-2.431-23.483a8.692 8.692 0 0 1 1.118-5.239z" opacity="1" data-original="#fed2a4"></path><path fill="#bb5d4c" d="M392.697 99.712a7.612 7.612 0 0 1-6.586-11.42l6.289-10.893a7.61 7.61 0 0 1 10.399-2.787 7.612 7.612 0 0 1 2.787 10.399l-6.289 10.893a7.61 7.61 0 0 1-6.6 3.808z" opacity="1" data-original="#bb5d4c"></path><path fill="#bb5d4c" d="m337.655 20.501-20.671 35.802c-7.578 13.126-3.081 29.909 10.045 37.488l16.337-15.877c-4.785-3.947-6.174-10.875-2.969-16.425l4.219-7.307c3.571-6.186 11.481-8.305 17.667-4.734l6.509 3.758 9.489-10.907a5.074 5.074 0 0 1 6.367-1.064l52.823 30.497 18.332-13.939c5.828-4.432 5.262-13.37-1.079-17.031L393.645 5.498C374.041-5.82 348.974.897 337.655 20.501z" opacity="1" data-original="#bb5d4c"></path><path fill="#a44f3e" d="M338.833 69.93a12.829 12.829 0 0 1 1.053-7.454 27.497 27.497 0 0 1 2.62-6.172l20.671-35.803c5.258-9.107 13.485-15.428 22.751-18.457-18.05-5.941-38.396 1.349-48.273 18.457l-20.671 35.803c-7.578 13.126-3.081 29.909 10.045 37.488l13.826-13.436a27.572 27.572 0 0 1-2.022-10.426z" opacity="1" data-original="#a44f3e"></path><path fill="#62dbfb" d="m341.807 132.69-32.105-18.536c-3.508-2.025-7.716-1.708-10.842.449l17.036 9.836c9.396 5.424 13.092 17.732 8.24 27.436a18.657 18.657 0 0 1-25.649 7.335l-19.961-11.358-59.069 102.311 1.209 1.87 24.147 13.941h67.886l2.88-1.015 42.122-72.958c11.988-20.766 4.872-47.321-15.894-59.311z" opacity="1" data-original="#62dbfb" class=""></path><g fill="#01d0fb"><path d="M315.896 124.439a20.19 20.19 0 0 1 4.799 3.872l1.122-1.93a10.084 10.084 0 0 1 3.198-3.385l-15.313-8.841c-3.508-2.025-7.716-1.708-10.842.449zM298.486 159.209l-19.961-11.358-59.069 102.311 1.209 1.87 21.059 12.158 60.141-103.482a18.575 18.575 0 0 1-3.379-1.499z" fill="#01d0fb" opacity="1" data-original="#01d0fb"></path></g><path fill="#ffbd86" d="m130.465 416.534 37.223-64.47 17.812 10.284-37.223 64.47z" opacity="1" data-original="#ffbd86"></path><path fill="#dff6fd" d="m118.708 439.577 30.287 26.426 2.119.522 16.489-28.559-37.128-21.436-12.281 21.271z" opacity="1" data-original="#dff6fd"></path><path fill="#c8effe" d="m133.686 451.319 14.261-24.701-17.472-10.088-12.281 21.271z" opacity="1" data-original="#c8effe"></path><path fill="#ffbd86" d="M360.142 377.439V264.964c-.065 0-.129-.005-.194-.005h-11.179v50.044a4.065 4.065 0 0 1-4.06 4.06h-4.762v58.375h20.195z" opacity="1" data-original="#ffbd86"></path><path fill="#dff6fd" d="m381.495 407.208 1.322-1v-28.769h-42.871v28.769l1.231 1z" opacity="1" data-original="#dff6fd"></path><path fill="#c8effe" d="M339.946 377.439h20.195v28.769h-20.195z" opacity="1" data-original="#c8effe"></path><path fill="#54469c" d="M339.946 437.879v-31.671H397.7c15.56 0 28.173 12.614 28.173 28.173a8.573 8.573 0 0 1-8.573 8.573h-72.278a5.076 5.076 0 0 1-5.076-5.075z" opacity="1" data-original="#54469c"></path><path fill="#463b84" d="M345.022 442.954h15.12v-36.747h-20.195v31.671a5.074 5.074 0 0 0 5.075 5.076z" opacity="1" data-original="#463b84"></path><path fill="#fac600" d="M220.456 294.638v-41.472l-1-3.003-55.032 95.318a5.074 5.074 0 0 0 1.858 6.933l38.944 22.484a5.075 5.075 0 0 0 6.933-1.858l30.578-52.962-.377-1.131c-12.289-1.273-21.904-11.689-21.904-24.309z" opacity="1" data-original="#fac600"></path><path fill="#e8b800" d="m198.408 345.481 23.306-40.367a25.345 25.345 0 0 1-2.258-10.476v-44.475l-55.032 95.318a5.075 5.075 0 0 0 1.858 6.933l38.944 22.484a5.074 5.074 0 0 0 6.933-1.858l5.958-10.32-17.851-10.307a5.074 5.074 0 0 1-1.858-6.932z" opacity="1" data-original="#e8b800"></path><path fill="#e8b800" d="m245.083 264.959-25.628-14.796v44.475c0 14.051 11.39 25.441 25.441 25.441h99.812a5.075 5.075 0 0 0 5.075-5.075V264.96h-104.7z" opacity="1" data-original="#e8b800"></path><path fill="#d7aa02" d="M261.73 303c-14.051 0-25.441-11.39-25.441-25.441v-17.677l-16.833-9.719v44.475c0 14.051 11.39 25.441 25.441 25.441h99.812a5.075 5.075 0 0 0 5.075-5.075V303z" opacity="1" data-original="#d7aa02"></path><path fill="#fed2a4" d="m316.396 123.573-58.109-33.549c-8.204-4.736-18.694-1.926-23.43 6.278l-46.717 80.915c-.975 1.688-2.835 2.72-4.774 2.52-4.686-.484-9.437 1.748-11.945 6.093l-4.624 8.01c-3.405 5.898-1.385 13.441 4.514 16.846l23.985 13.848c5.898 3.405 13.44 1.384 16.846-4.514l4.624-8.01c2.484-4.302 2.075-9.473-.616-13.279-1.154-1.632-1.285-3.774-.286-5.505l34.713-60.125 47.415 26.978c9.593 5.458 21.798 1.957 27.038-7.757 5.072-10.142 1.186-23.08-8.634-28.749z" opacity="1" data-original="#fed2a4"></path><path fill="#ffbd86" d="m179.124 204.896 4.749-8.225c2.576-4.461 7.454-6.754 12.266-6.256 1.991.206 3.901-.854 4.902-2.587l47.973-83.092c4.395-7.612 13.608-10.68 21.559-7.618l-12.287-7.094c-8.204-4.736-18.694-1.926-23.43 6.278l-46.717 80.915c-.975 1.688-2.835 2.72-4.774 2.52-4.686-.484-9.437 1.748-11.945 6.093l-4.624 8.01c-3.405 5.898-1.385 13.441 4.514 16.846l6.538 3.775a12.63 12.63 0 0 1 1.276-9.565z" opacity="1" data-original="#ffbd86"></path><path fill="#54469c" d="m96.021 472.83 28.937 24.944h59.259v-3.508c0-9.868-7.269-18.229-17.041-19.6l-6.549-.919a4.998 4.998 0 0 1-2.592-1.184l-39.839-34.761-23.006 27.753a5.076 5.076 0 0 0 .831 7.275z" opacity="1" data-original="#54469c"></path><path fill="#463b84" d="m96.021 472.83 28.937 24.944h25.543l-28.937-24.944a5.075 5.075 0 0 1-.83-7.275l12.284-14.82-14.823-12.933-23.005 27.753a5.076 5.076 0 0 0 .831 7.275z" opacity="1" data-original="#463b84"></path><path fill="#8bc727" d="M467.178 512H53.775a7.5 7.5 0 0 1 0-15h413.403a7.5 7.5 0 0 1 0 15z" opacity="1" data-original="#8bc727"></path></g></svg>