<svg xmlns="http://www.w3.org/2000/svg" width="119" height="126" viewBox="0 0 119 126" fill="none">
  <path d="M31.2981 113.26C31.2981 113.26 22.7381 123.267 15.9473 122.994C11.7554 122.827 8.14037 122.499 6.02549 118.876C2.56627 112.95 20.253 107.269 20.253 107.269M31.2981 113.26C31.2981 113.26 40.1864 114.812 45.7128 114.57C51.3296 114.325 59.3787 111.949 59.3787 111.949M31.2981 113.26C26.1646 112.389 23.6647 111.224 20.253 107.269M20.253 107.269C16.7167 95.5737 17.8591 84.8185 27.3668 55.6009M27.3668 55.6009C16.975 51.4443 10.4157 36.3495 15.9789 25.0724M27.3668 55.6009C38.1083 60.5159 43.4674 59.0581 53.7091 53.2982M66.118 104.461C66.118 104.461 77.7247 106.895 80.9071 111.949C82.2315 114.053 82.3402 116.283 80.9071 118.314C79.2611 120.647 76.6288 120.333 73.7934 119.999C67.4284 119.25 59.3787 111.949 59.3787 111.949M66.118 104.461C66.118 104.461 67.733 101.485 68.3645 99.9684C68.9525 98.556 69.1745 96.4283 69.2557 95.2384C69.2902 94.7333 69.6882 94.3153 70.1918 94.2631C87.0071 92.5198 92.4649 88.4383 99.6275 77.1295C105.544 67.7879 102.235 59.2625 104.495 49.236C105.515 44.7118 108.408 47.3472 113.432 40.6887C113.464 40.6474 113.492 40.6028 113.516 40.5568C113.848 39.9171 116.39 34.9071 116.102 32.0133C115.9 29.9896 115.028 28.3739 113.481 26.9588C112.084 25.6814 109.823 25.1757 107.303 25.0724C100.751 24.8037 96.866 29.4374 94.1986 35.5702C91.2035 42.4566 92.8998 55.2556 93.2626 58.4092C94.0137 64.9387 92.0549 77.2062 82.0304 82.9328C78.1214 85.1659 70.6468 85.6265 68.2145 85.7186C67.7509 85.7362 67.3511 85.4305 67.2365 84.981C66.4894 82.0526 63.7057 71.4082 61.4379 66.2717C59.645 62.2107 55.7738 56.2709 53.7091 53.2982M66.118 104.461C64.6533 107.964 63.1934 109.619 59.3787 111.949M59.7531 23.4019C65.1779 33.7441 62.1314 47.8436 54.4274 51.0979C53.7957 51.3648 53.3179 52.735 53.7091 53.2982V53.2982M59.7531 23.4019C59.7531 23.4019 67.3609 6.50705 60.5019 3.55829C54.4403 0.95237 46.2744 12.67 46.2744 12.67M59.7531 23.4019C58.7926 21.5709 57.5441 19.7689 56.009 18.1665M46.2744 12.67C43.4019 12.0807 40.1049 11.9923 36.3526 12.5441C32.4992 13.1107 29.214 14.0781 26.4441 15.3521M46.2744 12.67C48.4262 13.1115 50.361 13.9172 52.0777 14.9732M26.4441 15.3521C26.4441 15.3521 15.5346 5.3787 11.08 9.92318C6.72752 14.3635 15.9789 25.0724 15.9789 25.0724M26.4441 15.3521C24.8337 16.0928 23.3975 16.9371 22.125 17.8666M15.9789 25.0724C16.5747 23.8646 17.3096 22.7006 18.1938 21.5985M18.1938 21.5985C18.1938 21.5985 16.2669 18.7625 17.2577 17.4113C18.3866 15.8718 22.125 17.8666 22.125 17.8666M18.1938 21.5985C19.2748 20.2509 20.5791 18.9959 22.125 17.8666M52.0777 14.9732C52.0777 14.9732 54.1344 11.5272 56.009 11.9824C58.3558 12.5524 56.009 18.1665 56.009 18.1665M52.0777 14.9732C53.5484 15.8778 54.8591 16.9662 56.009 18.1665M22.125 35.9446H3.77904M2.84302 47.364C9.39525 44.3703 13.0855 43.2366 19.6914 41.9351M55.2602 34.8213C63.036 30.8935 67.4272 29.726 75.291 28.6436M56.945 39.8758C64.8659 39.2038 69.1226 39.6764 76.4142 41.9351M29.8004 44.9303C29.8004 44.9303 35.3706 48.5472 39.535 48.1128C43.8845 47.6591 48.3336 42.4967 48.3336 42.4967" stroke="#FFD787" stroke-width="5" stroke-linecap="round"/>
  <path d="M29.2773 29.2724C27.9637 29.2795 27.0368 31.1347 26.9957 32.0294C26.9178 33.7261 28.2294 35.1383 29.2773 34.9985C30.2385 34.8703 31.5588 34.3623 31.5588 32.2415C31.5588 30.9002 30.6463 29.265 29.2773 29.2724Z" fill="#FFD787"/>
  <path d="M50.9515 29.9087C50.8899 28.7394 50.096 27.2577 49.0503 27.1516C47.8952 27.0345 46.8249 28.6165 46.7688 29.9087C46.7177 31.0844 47.4422 32.0275 48.4799 32.2415C49.7232 32.4979 51.0258 31.3166 50.9515 29.9087Z" fill="#FFD787"/>
  <path d="M29.2773 29.2724C27.9637 29.2795 27.0368 31.1347 26.9957 32.0294C26.9178 33.7261 28.2294 35.1383 29.2773 34.9985C30.2385 34.8703 31.5588 34.3623 31.5588 32.2415C31.5588 30.9002 30.6463 29.265 29.2773 29.2724Z" stroke="#FFD787" stroke-width="3" stroke-linecap="round"/>
  <path d="M50.9515 29.9087C50.8899 28.7394 50.096 27.2577 49.0503 27.1516C47.8952 27.0345 46.8249 28.6165 46.7688 29.9087C46.7177 31.0844 47.4422 32.0275 48.4799 32.2415C49.7232 32.4979 51.0258 31.3166 50.9515 29.9087Z" stroke="#FFD787" stroke-width="3" stroke-linecap="round"/>
  <path d="M34.4804 75.4442C34.4804 75.4442 45.1528 96.3377 36.7269 97.9087C29.3188 99.2899 25.4946 82.1836 25.4946 82.1836M47.7719 73.1978C47.7719 73.1978 42.6554 95.9728 51.3288 95.6622C59.4845 95.3702 56.7577 75.4442 56.7577 75.4442" stroke="#FFD787" stroke-width="5" stroke-linecap="round"/>
</svg>