<svg xmlns="http://www.w3.org/2000/svg" version="1.1" xmlns:xlink="http://www.w3.org/1999/xlink" width="40" height="40" x="0" y="0" viewBox="0 0 682.667 682.667" style="enable-background:new 0 0 512 512" xml:space="preserve" class=""><g><defs><clipPath id="a" clipPathUnits="userSpaceOnUse"><path d="M0 512h512V0H0Z" fill="#000000" opacity="0" data-original="#000000"></path></clipPath></defs><g clip-path="url(#a)" transform="matrix(1.33333 0 0 -1.33333 0 682.667)"><path d="m0 0 110.259-32.951-.557 50.965c-1.789 25.433-16.32 48.323-38.731 60.478-83.695 45.391-199.375 45.659-199.375 45.659s-115.681-.268-199.376-45.659c-22.411-12.155-36.943-35.045-38.731-60.478l-.557-50.965L-256.81 0l-4.891 15.291c-3.264 10.207 1.892 21.204 11.827 25.222l15.528 6.279 41.692 6.328h128.499l41.691-6.328 15.528-6.279C2.999 36.495 8.156 25.498 4.892 15.291Z" style="fill-opacity:1;fill-rule:nonzero;stroke:none" transform="translate(384.448 346.057)" fill="#ed5469" data-original="#ed5469" class=""></path><path d="m0 0 50.091-14.97 2.062 8.132c.132.521.252 1.043.361 1.566 3.389 16.431-7.043 32.586-23.208 37.077l-46.99 13.054 10.748-4.346C2.999 36.495 8.156 25.498 4.892 15.291Z" style="fill-opacity:1;fill-rule:nonzero;stroke:none" transform="translate(384.448 346.057)" fill="#e63850" data-original="#e63850" class=""></path><path d="M0 0c1.709 27.03 15.061 51.469 35.8 65.382C20.767 60.118 5.937 53.815-8.004 46.255-30.416 34.1-44.947 11.21-46.735-14.223l-.557-50.965L-.503-51.205z" style="fill-opacity:1;fill-rule:nonzero;stroke:none" transform="translate(64.672 378.294)" fill="#e63850" data-original="#e63850" class=""></path><path d="M0 0s-21.478-.054-52.609-3.739v-15.219c0-7.104 5.812-12.915 12.915-12.915h79.387c7.104 0 12.915 5.811 12.915 12.915v15.219C21.478-.054 0 0 0 0" style="fill-opacity:1;fill-rule:nonzero;stroke:none" transform="translate(256.043 470.209)" fill="#e63850" data-original="#e63850" class=""></path><path d="M0 0h-24.472a8.61 8.61 0 0 1-8.61-8.61v-34.108H8.61V-8.61A8.61 8.61 0 0 1 0 0" style="fill-opacity:1;fill-rule:nonzero;stroke:none" transform="translate(183.184 425.724)" fill="#f27182" data-original="#f27182" class=""></path><path d="M0 0h-24.471a8.61 8.61 0 0 1-8.61-8.61v-34.108H8.61V-8.61A8.61 8.61 0 0 1 0 0" style="fill-opacity:1;fill-rule:nonzero;stroke:none" transform="translate(353.373 425.724)" fill="#f78b98" data-original="#f78b98" class=""></path><path d="m0 0-113.351 34.339c-4.982 1.51-10.277-1.388-11.766-6.439l-5.257-17.833c-1.489-5.051 1.369-10.419 6.352-11.928L-10.672-36.2c4.983-1.51 10.278 1.388 11.767 6.439l5.258 17.832C7.841-6.877 4.982-1.51 0 0" style="fill-opacity:1;fill-rule:nonzero;stroke:none" transform="translate(497.798 312.678)" fill="#f78b98" data-original="#f78b98" class=""></path><path d="m0 0 5.691 19.308a10.32 10.32 0 0 0 6.58 6.858l-48.51 14.696c-4.983 1.509-10.278-1.388-11.767-6.44l-5.257-17.832c-1.489-5.051 1.369-10.419 6.352-11.929L2.615-10.343C.023-7.728-1.115-3.783 0 0" style="fill-opacity:1;fill-rule:nonzero;stroke:none" transform="translate(420.687 306.155)" fill="#f27182" data-original="#f27182" class=""></path><path d="m0 0 113.35 34.339c4.983 1.51 10.278-1.388 11.767-6.439l5.257-17.833c1.489-5.051-1.369-10.419-6.352-11.928L10.672-36.2C5.689-37.71.394-34.812-1.095-29.761l-5.258 17.832C-7.842-6.877-4.983-1.51 0 0" style="fill-opacity:1;fill-rule:nonzero;stroke:none" transform="translate(14.288 312.678)" fill="#f78b98" data-original="#f78b98" class=""></path><path d="m0 0-5.666 19.22c-1.181 4.007.182 8.194 3.123 10.776l-49.551-15.011c-4.983-1.51-7.842-6.878-6.353-11.929l5.258-17.832c1.488-5.051 6.784-7.949 11.767-6.439L6.336-6.747A10.265 10.265 0 0 0 0 0" style="fill-opacity:1;fill-rule:nonzero;stroke:none" transform="translate(66.382 297.693)" fill="#f27182" data-original="#f27182" class=""></path><path d="M0 0v116.72h-41.691v-4.304c0-9.61-7.79-17.4-17.4-17.4h-93.7c-9.609 0-17.399 7.79-17.399 17.4v4.304h-41.692V0c0-35.217-12.408-71.309-35.044-98.288l-7.703-9.18H42.748l-7.703 9.18C12.408-71.309 0-35.217 0 0" style="fill-opacity:1;fill-rule:nonzero;stroke:none" transform="translate(361.984 268.286)" fill="#ed5469" data-original="#ed5469" class=""></path><path d="M0 0v97.23c-5.318 2.978-8.917 8.658-8.917 15.186v4.304h-41.692V0c0-35.217-12.408-71.309-35.044-98.287l-7.703-9.181h50.608l7.703 9.181C-12.408-71.309 0-35.217 0 0" style="fill-opacity:1;fill-rule:nonzero;stroke:none" transform="translate(200.71 268.286)" fill="#e63850" data-original="#e63850" class=""></path><path d="M0 0h-300.215c-12.446 0-22.628-10.183-22.628-22.628v-58.349H22.628v58.349C22.628-10.183 12.445 0 0 0" style="fill-opacity:1;fill-rule:nonzero;stroke:none" transform="translate(406.15 162.818)" fill="#f27182" data-original="#f27182" class=""></path><path d="M0 0h-50.608c-12.446 0-22.628-10.183-22.628-22.627v-58.35h50.608v58.35C-22.628-10.183-12.445 0 0 0" style="fill-opacity:1;fill-rule:nonzero;stroke:none" transform="translate(156.544 162.818)" fill="#ed5469" data-original="#ed5469" class=""></path><path d="M0 0h-359.343c-6.769 0-12.257-5.488-12.257-12.257v-18.535c0-6.77 5.488-12.258 12.257-12.258H0c6.77 0 12.257 5.488 12.257 12.258v18.535C12.257-5.488 6.77 0 0 0" style="fill-opacity:1;fill-rule:nonzero;stroke:none" transform="translate(435.714 84.841)" fill="#f78b98" data-original="#f78b98" class=""></path><path d="M0 0v18.535c0 6.77 5.488 12.257 12.257 12.257h-50.609c-6.769 0-12.256-5.487-12.256-12.257V0c0-6.769 5.487-12.257 12.256-12.257h50.609C5.488-12.257 0-6.769 0 0" style="fill-opacity:1;fill-rule:nonzero;stroke:none" transform="translate(114.723 54.049)" fill="#f27182" data-original="#f27182" class=""></path><path d="M0 0c0-39.601-32.104-71.704-71.704-71.704-39.602 0-71.705 32.103-71.705 71.704 0 39.601 32.103 71.704 71.705 71.704C-32.104 71.704 0 39.601 0 0" style="fill-opacity:1;fill-rule:nonzero;stroke:none" transform="translate(327.748 263.257)" fill="#e8f9fc" data-original="#e8f9fc" class=""></path><path d="M0 0c0 32.788 22.015 60.415 52.063 68.958a71.709 71.709 0 0 1-19.641 2.746C-7.179 71.704-39.282 39.601-39.282 0c0-39.601 32.103-71.704 71.704-71.704 6.814 0 13.397.971 19.641 2.746C22.015-60.415 0-32.787 0 0" style="fill-opacity:1;fill-rule:nonzero;stroke:none" transform="translate(223.621 263.257)" fill="#d9e7ec" data-original="#d9e7ec" class=""></path><path d="M0 0c0-19.763-16.021-35.785-35.784-35.785-19.764 0-35.785 16.022-35.785 35.785 0 19.764 16.021 35.785 35.785 35.785C-16.021 35.785 0 19.764 0 0" style="fill-opacity:1;fill-rule:nonzero;stroke:none" transform="translate(291.828 263.257)" fill="#d9e7ec" data-original="#d9e7ec" class=""></path><path d="M0 0c0 12.508 6.422 23.511 16.144 29.909a35.615 35.615 0 0 1-19.641 5.876c-19.764 0-35.785-16.021-35.785-35.785 0-19.763 16.021-35.785 35.785-35.785a35.607 35.607 0 0 1 19.641 5.877C6.422-23.511 0-12.508 0 0" style="fill-opacity:1;fill-rule:nonzero;stroke:none" transform="translate(259.54 263.257)" fill="#c4d2dd" data-original="#c4d2dd"></path><path d="M0 0h-300.215c-12.446 0-22.628-10.183-22.628-22.628v-55.349H22.628v55.349C22.628-10.183 12.445 0 0 0Z" style="stroke-width:15;stroke-linecap:round;stroke-linejoin:round;stroke-miterlimit:10;stroke-dasharray:none;stroke-opacity:1" transform="translate(406.108 162.818)" fill="none" stroke="#000000" stroke-width="15" stroke-linecap="round" stroke-linejoin="round" stroke-miterlimit="10" stroke-dasharray="none" stroke-opacity="" data-original="#000000" opacity="0" class=""></path><path d="M0 0h-24.471a8.61 8.61 0 0 1-8.61-8.61v-32.108H8.61V-8.61A8.61 8.61 0 0 1 0 0Z" style="stroke-width:15;stroke-linecap:round;stroke-linejoin:round;stroke-miterlimit:10;stroke-dasharray:none;stroke-opacity:1" transform="translate(183.14 425.724)" fill="none" stroke="#000000" stroke-width="15" stroke-linecap="round" stroke-linejoin="round" stroke-miterlimit="10" stroke-dasharray="none" stroke-opacity="" data-original="#000000" opacity="0" class=""></path><path d="M0 0h-24.472a8.61 8.61 0 0 1-8.61-8.61v-32.108H8.609V-8.61A8.61 8.61 0 0 1 0 0Z" style="stroke-width:15;stroke-linecap:round;stroke-linejoin:round;stroke-miterlimit:10;stroke-dasharray:none;stroke-opacity:1" transform="translate(353.332 425.724)" fill="none" stroke="#000000" stroke-width="15" stroke-linecap="round" stroke-linejoin="round" stroke-miterlimit="10" stroke-dasharray="none" stroke-opacity="" data-original="#000000" opacity="0" class=""></path><path d="m0 0-113.35 33.875c-4.983 1.489-10.278-1.37-11.767-6.353l-5.257-17.59c-1.489-4.983 1.369-10.279 6.352-11.767l113.35-33.875c4.983-1.489 10.278 1.369 11.768 6.352l5.257 17.591C7.842-6.784 4.983-1.489 0 0Z" style="stroke-width:15;stroke-linecap:round;stroke-linejoin:round;stroke-miterlimit:10;stroke-dasharray:none;stroke-opacity:1" transform="translate(497.755 312.182)" fill="none" stroke="#000000" stroke-width="15" stroke-linecap="round" stroke-linejoin="round" stroke-miterlimit="10" stroke-dasharray="none" stroke-opacity="" data-original="#000000" opacity="0" class=""></path><path d="m0 0 113.35 33.875c4.983 1.489 10.278-1.37 11.767-6.353l5.258-17.59c1.488-4.983-1.37-10.279-6.353-11.767L10.672-35.71C5.689-37.199.394-34.341-1.095-29.358l-5.258 17.591C-7.841-6.784-4.983-1.489 0 0Z" style="stroke-width:15;stroke-linecap:round;stroke-linejoin:round;stroke-miterlimit:10;stroke-dasharray:none;stroke-opacity:1" transform="translate(14.245 312.182)" fill="none" stroke="#000000" stroke-width="15" stroke-linecap="round" stroke-linejoin="round" stroke-miterlimit="10" stroke-dasharray="none" stroke-opacity="" data-original="#000000" opacity="0" class=""></path><path d="m0 0 110.258-32.951-.557 50.965c-1.789 25.433-16.319 48.323-38.731 60.478-83.695 45.39-199.375 45.659-199.375 45.659s-115.681-.269-199.376-45.659c-22.411-12.155-36.942-35.045-38.731-60.478l-.557-50.965L-256.811 0l-4.891 15.291c-3.264 10.206 1.892 21.204 11.827 25.222l15.529 6.279v24.265a8.61 8.61 0 0 0 8.61 8.61h24.471a8.61 8.61 0 0 0 8.61-8.61V53.12h128.499v17.937a8.61 8.61 0 0 0 8.61 8.61h24.472a8.61 8.61 0 0 0 8.609-8.61V46.792l15.528-6.279C2.998 36.495 8.155 25.497 4.891 15.291Z" style="stroke-width:15;stroke-linecap:round;stroke-linejoin:round;stroke-miterlimit:10;stroke-dasharray:none;stroke-opacity:1" transform="translate(384.406 346.057)" fill="none" stroke="#000000" stroke-width="15" stroke-linecap="round" stroke-linejoin="round" stroke-miterlimit="10" stroke-dasharray="none" stroke-opacity="" data-original="#000000" opacity="0" class=""></path><path d="M0 0s-21.478-.054-52.609-3.739v-15.219c0-7.104 5.812-12.915 12.915-12.915h79.387c7.104 0 12.915 5.811 12.915 12.915v15.219C21.478-.054 0 0 0 0Z" style="stroke-width:15;stroke-linecap:round;stroke-linejoin:round;stroke-miterlimit:10;stroke-dasharray:none;stroke-opacity:1" transform="translate(256 470.209)" fill="none" stroke="#000000" stroke-width="15" stroke-linecap="round" stroke-linejoin="round" stroke-miterlimit="10" stroke-dasharray="none" stroke-opacity="" data-original="#000000" opacity="0" class=""></path><path d="M0 0c0-39.601-32.104-71.704-71.704-71.704-39.602 0-71.704 32.103-71.704 71.704 0 39.601 32.102 71.704 71.704 71.704C-32.104 71.704 0 39.601 0 0Z" style="stroke-width:15;stroke-linecap:round;stroke-linejoin:round;stroke-miterlimit:10;stroke-dasharray:none;stroke-opacity:1" transform="translate(327.705 263.257)" fill="none" stroke="#000000" stroke-width="15" stroke-linecap="round" stroke-linejoin="round" stroke-miterlimit="10" stroke-dasharray="none" stroke-opacity="" data-original="#000000" opacity="0" class=""></path><path d="M0 0c0-19.763-16.021-35.785-35.784-35.785-19.764 0-35.785 16.022-35.785 35.785 0 19.764 16.021 35.785 35.785 35.785C-16.021 35.785 0 19.764 0 0Z" style="stroke-width:15;stroke-linecap:round;stroke-linejoin:round;stroke-miterlimit:10;stroke-dasharray:none;stroke-opacity:1" transform="translate(291.785 263.257)" fill="none" stroke="#000000" stroke-width="15" stroke-linecap="round" stroke-linejoin="round" stroke-miterlimit="10" stroke-dasharray="none" stroke-opacity="" data-original="#000000" opacity="0" class=""></path><path d="M0 0h162.171c6.769 0 12.258 5.488 12.258 12.257v18.535c0 6.77-5.489 12.257-12.258 12.257h-359.342c-6.77 0-12.258-5.487-12.258-12.257V12.257c0-6.769 5.488-12.257 12.258-12.257H-35" style="stroke-width:15;stroke-linecap:round;stroke-linejoin:round;stroke-miterlimit:10;stroke-dasharray:none;stroke-opacity:1" transform="translate(273.5 41.792)" fill="none" stroke="#000000" stroke-width="15" stroke-linecap="round" stroke-linejoin="round" stroke-miterlimit="10" stroke-dasharray="none" stroke-opacity="" data-original="#000000" opacity="0" class=""></path><path d="M0 0v104.249h-41.691v-4.305c0-9.609-7.789-17.399-17.399-17.399h-93.701c-9.609 0-17.399 7.79-17.399 17.399v4.305h-41.691v-116.72a149.798 149.798 0 0 0-35.045-96.287l-7.703-9.181H42.748l-7.703 9.181A149.79 149.79 0 0 0 1.707-35" style="stroke-width:15;stroke-linecap:round;stroke-linejoin:round;stroke-miterlimit:10;stroke-dasharray:none;stroke-opacity:1" transform="translate(361.94 280.757)" fill="none" stroke="#000000" stroke-width="15" stroke-linecap="round" stroke-linejoin="round" stroke-miterlimit="10" stroke-dasharray="none" stroke-opacity="" data-original="#000000" opacity="0" class=""></path></g></g></svg>