<svg xmlns="http://www.w3.org/2000/svg" version="1.1" xmlns:xlink="http://www.w3.org/1999/xlink" width="40" height="40" x="0" y="0" viewBox="0 0 511 511.965" style="enable-background:new 0 0 512 512" xml:space="preserve" class=""><g transform="matrix(-1,1.1246467991473535e-16,-1.2246467991473535e-16,1,512.8758637905122,1.4210854715202004e-13)"><path fill="#f29c1f" d="m512.309 172.05-202.891 36.446L340.656.051a16.81 16.81 0 0 1 13.364 5.035l153.34 153.34a16.697 16.697 0 0 1 4.949 13.625zm0 0" opacity="1" data-original="#f29c1f" class=""></path><path fill="#e57e25" d="M512.309 172.05a16.548 16.548 0 0 1-4.95 10.934L249.711 440.72a16.926 16.926 0 0 1-11.02 4.945l36.446-202.976 23.433-3.56a8.675 8.675 0 0 0 7.29-7.202l3.558-23.43zm0 0" opacity="1" data-original="#e57e25" class=""></path><path fill="#f29c1f" d="M275.137 242.688 238.69 445.663a16.902 16.902 0 0 1-13.539-4.945L71.727 287.293a17.22 17.22 0 0 1-5.032-13.363zm0 0" opacity="1" data-original="#f29c1f" class=""></path><path fill="#f0c419" d="m340.656.05-31.238 208.446-3.559 23.43a8.675 8.675 0 0 1-7.289 7.203l-23.433 3.559L66.695 273.93a17.452 17.452 0 0 1 5.032-11.196L329.46 5.086A16.855 16.855 0 0 1 340.656.05zm0 0" opacity="1" data-original="#f0c419" class=""></path><g fill="#84b5cb"><path d="M26.516 494.61c-3.512 0-6.672-2.118-8.016-5.36s-.602-6.973 1.879-9.453l95.457-95.457a8.681 8.681 0 0 1 12.168.105 8.68 8.68 0 0 1 .105 12.164l-95.46 95.457a8.662 8.662 0 0 1-6.133 2.543zM9.16 390.473a8.678 8.678 0 0 1-6.137-14.813l52.067-52.066a8.681 8.681 0 0 1 12.168.105 8.676 8.676 0 0 1 .105 12.164l-52.07 52.067a8.662 8.662 0 0 1-6.133 2.543zM130.652 511.965a8.678 8.678 0 0 1-6.137-14.813l52.067-52.066c3.406-3.29 8.82-3.242 12.164.105 3.348 3.344 3.395 8.758.11 12.164l-52.07 52.067a8.662 8.662 0 0 1-6.134 2.543zM9.16 442.543a8.68 8.68 0 0 1-6.137-14.816l26.036-26.032a8.676 8.676 0 0 1 12.164.106 8.676 8.676 0 0 1 .105 12.164L15.293 440a8.695 8.695 0 0 1-6.133 2.543zM78.582 511.965a8.678 8.678 0 0 1-6.133-14.813l26.031-26.035a8.676 8.676 0 0 1 12.165.106 8.676 8.676 0 0 1 .105 12.164l-26.031 26.035a8.678 8.678 0 0 1-6.137 2.543zm0 0" fill="#84b5cb" opacity="1" data-original="#84b5cb"></path></g><path fill="#f9eab0" d="M156.684 234.27a8.678 8.678 0 0 1-6.133-14.813l43.387-43.39a8.681 8.681 0 0 1 12.167.105c3.344 3.348 3.395 8.762.106 12.164l-43.39 43.39a8.678 8.678 0 0 1-6.137 2.544zM226.11 164.848a8.68 8.68 0 0 1-6.137-14.817l8.68-8.676a8.676 8.676 0 0 1 12.163.106 8.676 8.676 0 0 1 .106 12.164l-8.68 8.68a8.679 8.679 0 0 1-6.133 2.543zm0 0" opacity="1" data-original="#f9eab0"></path></g></svg>