<svg xmlns="http://www.w3.org/2000/svg" version="1.1" xmlns:xlink="http://www.w3.org/1999/xlink" width="60" height="60" x="0" y="0" viewBox="0 0 512 512" style="enable-background:new 0 0 512 512" xml:space="preserve" class=""><g><path d="M177.875 256H99.75v-62.5c0-34.473 28.027-62.5 62.5-62.5h7.812a23.382 23.382 0 0 0 23.438-23.438V60.688a23.382 23.382 0 0 0-23.438-23.438h-7.812C75.922 37.25 6 107.172 6 193.5v234.375c0 25.879 20.996 46.875 46.875 46.875h125c25.879 0 46.875-20.996 46.875-46.875v-125c0-25.879-20.996-46.875-46.875-46.875zM459.125 256H381v-62.5c0-34.473 28.027-62.5 62.5-62.5h7.812a23.382 23.382 0 0 0 23.438-23.438V60.688a23.382 23.382 0 0 0-23.438-23.438H443.5c-86.328 0-156.25 69.922-156.25 156.25v234.375c0 25.879 20.996 46.875 46.875 46.875h125c25.879 0 46.875-20.996 46.875-46.875v-125C506 276.996 485.004 256 459.125 256z" fill="#5ab1d3" opacity="1" data-original="#000000" class=""></path></g></svg>