<svg xmlns="http://www.w3.org/2000/svg" version="1.1" xmlns:xlink="http://www.w3.org/1999/xlink" width="100" height="100" x="0" y="0" viewBox="0 0 64 64" style="enable-background:new 0 0 512 512" xml:space="preserve" class=""><g><g data-name="Layer 29"><path fill="#858687" d="M50 62H14l2-10h32z" opacity="1" data-original="#858687"></path><path fill="#9d9e9f" d="M14.4 60H45a2 2 0 0 0 2-2v-6H16z" opacity="1" data-original="#9d9e9f" class=""></path><rect width="27" height="6" x="17" y="53" fill="#b1b1b2" rx="2" opacity="1" data-original="#b1b1b2"></rect><rect width="48" height="38" x="8" y="2" fill="#858687" rx="3" opacity="1" data-original="#858687"></rect><path fill="#9d9e9f" d="M54 31.853V2.184A2.962 2.962 0 0 0 53 2H11.136A3.113 3.113 0 0 0 8 5.088V37h40.773A5.187 5.187 0 0 0 54 31.853z" opacity="1" data-original="#9d9e9f" class=""></path><path fill="#bce4f8" d="M12 6h40v26H12z" opacity="1" data-original="#bce4f8"></path><path fill="#e3f4fc" d="M12 6v22h32a4 4 0 0 0 4-4V6z" opacity="1" data-original="#e3f4fc"></path><g fill="#fff"><path d="M23 54h2v2h-2zM27 54h2v2h-2zM19 54h2v2h-2zM39 54h2v2h-2zM43 54h2v2h-2zM31 54h2v2h-2zM35 54h2v2h-2zM23 58h2v2h-2zM27 58h2v2h-2zM19 58h2v2h-2zM39 58h2v2h-2zM43 58h2v2h-2zM31 58h2v2h-2zM35 58h2v2h-2zM28 35h9v2h-9z" fill="#ffffff" opacity="1" data-original="#ffffff"></path></g><path fill="#858687" d="m40 48-.6-.8A12 12 0 0 1 37 40H27a12 12 0 0 1-2.4 7.2l-.6.8z" opacity="1" data-original="#858687"></path><path fill="#9d9e9f" d="M35 40h-8a12 12 0 0 1-2.4 7.2l-.6.8h14l-.6-.8A12 12 0 0 1 35 40z" opacity="1" data-original="#9d9e9f" class=""></path><path fill="#858687" d="M20 47h24v2H20z" opacity="1" data-original="#858687"></path><rect width="6" height="2" x="29" y="44" fill="#b1b1b2" rx="1" opacity="1" data-original="#b1b1b2"></rect><path fill="#296cb2" d="M42 28a5.892 5.892 0 0 0 6-5.778 5.879 5.879 0 0 0-5.807-5.768 6.532 6.532 0 0 0-12.386 0A5.879 5.879 0 0 0 24 22.222 5.892 5.892 0 0 0 30 28z" opacity="1" data-original="#296cb2"></path><path fill="#71acd9" d="M24 22.222a5.879 5.879 0 0 1 5.807-5.768 6.3 6.3 0 0 1 3.425-3.837l.014-.024A6.526 6.526 0 0 0 28 10a6.434 6.434 0 0 0-6.193 4.454A5.879 5.879 0 0 0 16 20.222 5.892 5.892 0 0 0 22 26h3.467A5.626 5.626 0 0 1 24 22.222z" opacity="1" data-original="#71acd9"></path><path fill="#95c1e3" d="M24 22.222a5.879 5.879 0 0 1 5.807-5.768 6.3 6.3 0 0 1 3.425-3.837l.014-.024A6.526 6.526 0 0 0 28 10a6.434 6.434 0 0 0-6.193 4.454A5.879 5.879 0 0 0 16 20.222 5.716 5.716 0 0 0 18.627 25h6.112A5.588 5.588 0 0 1 24 22.222z" opacity="1" data-original="#95c1e3"></path><path fill="#4e97d0" d="M41.648 15.241a6.537 6.537 0 0 0-11.841 1.213A5.879 5.879 0 0 0 24 22.222 5.588 5.588 0 0 0 24.739 25H34.5a7.522 7.522 0 0 0 7.5-7.5 7.41 7.41 0 0 0-.352-2.259z" opacity="1" data-original="#4e97d0"></path><circle cx="35.5" cy="16.5" r="1.5" fill="#71acd9" opacity="1" data-original="#71acd9"></circle><circle cx="25.5" cy="14.5" r="1.5" fill="#aacde9" opacity="1" data-original="#aacde9"></circle></g></g></svg>