<svg xmlns="http://www.w3.org/2000/svg" width="42" height="41" viewBox="0 0 42 41" fill="none">
  <path d="M32.2788 0.978722C33.0206 0.556938 33.9158 1.19827 33.7552 2.03634L31.3513 14.5731C31.2859 14.9147 31.4025 15.2657 31.6594 15.5002L41.0893 24.1041C41.7197 24.6792 41.3864 25.7289 40.5397 25.835L27.8737 27.4229C27.5286 27.4662 27.2308 27.6856 27.0872 28.0024L21.8184 39.6295C21.4662 40.4067 20.3649 40.4141 20.0023 39.6417L14.5781 28.0863C14.4303 27.7714 14.1296 27.556 13.784 27.5174L1.09779 26.0994C0.24974 26.0046 -0.0975884 24.9595 0.525014 24.376L9.83867 15.6464C10.0924 15.4086 10.2044 15.056 10.1343 14.7153L7.56266 2.2119C7.39075 1.37607 8.27735 0.722794 9.02474 1.1346L20.2051 7.29483C20.5097 7.46267 20.8796 7.46019 21.182 7.28829L32.2788 0.978722Z" fill="#FFD787"/>
</svg>