<svg xmlns="http://www.w3.org/2000/svg" version="1.1" xmlns:xlink="http://www.w3.org/1999/xlink" width="50" height="50" x="0" y="0" viewBox="0 0 682.667 682.667" style="enable-background:new 0 0 512 512" xml:space="preserve" class=""><g transform="matrix(-1,6.123233995736766e-16,6.123233995736766e-16,1,682.6667423248291,-2.2737367544323206e-13)"><defs stroke-width="7" style="stroke-width: 7;"><clipPath id="a" clipPathUnits="userSpaceOnUse" stroke-width="7" style="stroke-width: 7;"><path d="M0 512h512V0H0Z" fill="#000000" opacity="1" data-original="#000000" stroke-width="7" style="stroke-width: 7;"></path></clipPath></defs><path d="m0 0-68.558-17.515-10.842-67.79 24.542-63.189 63.189-24.542 67.79 10.843 28.474 57.598z" style="fill-opacity: 1; fill-rule: nonzero; stroke: none; stroke-width: 7;" transform="matrix(1.33333 0 0 -1.33333 126.11 431.708)" fill="#ffddcf" data-original="#ffddcf" stroke-width="7" class=""></path><g clip-path="url(#a)" transform="matrix(1.33333 0 0 -1.33333 0 682.667)" stroke-width="7" style="stroke-width: 7;"><path d="m0 0-53.271 53.271c-25.241 25.241-66.165 25.241-91.406 0l-58.202-58.203 144.677-144.676L0-91.406C25.241-66.165 25.241-25.241 0 0" style="fill-opacity: 1; fill-rule: nonzero; stroke: none; stroke-width: 7;" transform="translate(485.57 432.298)" fill="#ff8a98" data-original="#ff8a98" stroke-width="7" class=""></path><path d="m0 0 58.202 58.202c25.241 25.241 25.241 66.165 0 91.406l-19.997 19.997c25.238-25.241 25.237-66.163-.003-91.403L-20 20Z" style="fill-opacity: 1; fill-rule: nonzero; stroke: none; stroke-width: 7;" transform="translate(427.367 282.69)" fill="#ff6e80" data-original="#ff6e80" stroke-width="7"></path><path d="m0 0-108.104-27.087 46.148-17.923 67.79 10.843 11.865 24.002z" style="fill-opacity: 1; fill-rule: nonzero; stroke: none; stroke-width: 7;" transform="translate(164.87 60.193)" fill="#ffcbbe" data-original="#ffcbbe" stroke-width="7"></path><path d="m0 0-256.665-256.664 61.791-10.548 10.548-61.79 61.791-10.548 10.548-61.791 256.664 256.664z" style="fill-opacity: 1; fill-rule: nonzero; stroke: none; stroke-width: 7;" transform="translate(282.69 427.367)" fill="#f9ee80" data-original="#f9ee80" class="" stroke-width="7"></path><path d="m0 0-242.497-242.497 5.833-34.168L20-20Z" style="fill-opacity: 1; fill-rule: nonzero; stroke: none; stroke-width: 7;" transform="translate(407.367 302.69)" fill="#fdc072" data-original="#fdc072" stroke-width="7" class=""></path><path d="m0 0-144.677 144.677c-7.928 7.928-20.784 7.928-28.713 0l-23.007-23.009c-7.929-7.928-7.929-20.783 0-28.712L-51.721-51.721c7.929-7.928 20.784-7.928 28.712 0L0-28.712C7.929-20.784 7.929-7.929 0 0" style="fill-opacity: 1; fill-rule: nonzero; stroke: none; stroke-width: 7;" transform="translate(453.228 308.55)" fill="#c8c6cc" data-original="#c8c6cc" stroke-width="7" class=""></path><path d="M0 0c7.929-7.929 20.783-7.929 28.712 0l23.009 23.008c7.928 7.929 7.928 20.784 0 28.713l-20 20c7.928-7.929 7.928-20.784 0-28.713L8.712 20C.783 12.071-12.071 12.071-20 20Z" style="fill-opacity: 1; fill-rule: nonzero; stroke: none; stroke-width: 7;" transform="translate(401.507 256.83)" fill="#a29dae" data-original="#a29dae" stroke-width="7"></path><path d="m0 0-7.114-44.454c-4.736-29.567 20.824-55.127 50.39-50.391l44.455 7.114z" style="fill-opacity: 1; fill-rule: nonzero; stroke: none; stroke-width: 7;" transform="translate(15.183 102.914)" fill="#6a647f" data-original="#6a647f" stroke-width="7" class=""></path><path d="M0 0c-21.712 21.712-70.771 7.854-109.579-30.954-38.807-38.806-52.665-87.866-30.953-109.578 21.712-21.712 70.772-7.854 109.579 30.953C7.854-70.772 21.712-21.712 0 0" style="fill-opacity: 1; fill-rule: nonzero; stroke: none; stroke-width: 7;" transform="translate(291.782 291.782)" fill="#fdc072" data-original="#fdc072" stroke-width="7" class=""></path><path d="m0 0 44.455 7.114-23.578 23.579-61.591-15.433C-31.247 3.945-16.234-2.6 0 0" style="fill-opacity: 1; fill-rule: nonzero; stroke: none; stroke-width: 7;" transform="translate(58.459 8.068)" fill="#423e4f" data-original="#423e4f" stroke-width="7"></path><path d="M0 0c21.712-21.712 7.854-70.772-30.953-109.579-38.807-38.807-87.867-52.665-109.579-30.953-21.712 21.712-7.854 70.772 30.953 109.578C-70.771 7.854-21.712 21.712 0 0Z" style="stroke-width: 7; stroke-linecap: round; stroke-linejoin: round; stroke-miterlimit: 10; stroke-dasharray: none; stroke-opacity: 1;" transform="translate(291.782 291.782)" fill="none" stroke="#000000" stroke-width="7" stroke-linecap="round" stroke-linejoin="round" stroke-miterlimit="10" stroke-dasharray="none" stroke-opacity="" data-original="#000000" class=""></path><path d="m0 0 8.099-8.099" style="stroke-width: 7; stroke-linecap: round; stroke-linejoin: round; stroke-miterlimit: 10; stroke-dasharray: none; stroke-opacity: 1;" transform="translate(174.458 184.278)" fill="none" stroke="#000000" stroke-width="7" stroke-linecap="round" stroke-linejoin="round" stroke-miterlimit="10" stroke-dasharray="none" stroke-opacity="" data-original="#000000" class=""></path><path d="m0 0 8.099-8.099" style="stroke-width: 7; stroke-linecap: round; stroke-linejoin: round; stroke-miterlimit: 10; stroke-dasharray: none; stroke-opacity: 1;" transform="translate(258.755 268.575)" fill="none" stroke="#000000" stroke-width="7" stroke-linecap="round" stroke-linejoin="round" stroke-miterlimit="10" stroke-dasharray="none" stroke-opacity="" data-original="#000000" class=""></path><path d="M0 0c5.803-.398 11.739 1.614 16.175 6.05 4.435 4.435 6.448 10.372 6.05 16.175" style="stroke-width: 7; stroke-linecap: round; stroke-linejoin: round; stroke-miterlimit: 10; stroke-dasharray: none; stroke-opacity: 1;" transform="translate(213.352 207.456)" fill="none" stroke="#000000" stroke-width="7" stroke-linecap="round" stroke-linejoin="round" stroke-miterlimit="10" stroke-dasharray="none" stroke-opacity="" data-original="#000000" class=""></path><path d="m0 0-53.271 53.271c-25.242 25.241-66.166 25.241-91.406 0l-32.342-32.342 144.677-144.677L0-91.406C25.24-66.165 25.241-25.241 0 0Z" style="stroke-width: 7; stroke-linecap: round; stroke-linejoin: round; stroke-miterlimit: 10; stroke-dasharray: none; stroke-opacity: 1;" transform="translate(485.57 432.298)" fill="none" stroke="#000000" stroke-width="7" stroke-linecap="round" stroke-linejoin="round" stroke-miterlimit="10" stroke-dasharray="none" stroke-opacity="" data-original="#000000" class=""></path><path d="m0 0-144.677 144.677c-7.929 7.928-20.784 7.928-28.713 0l-23.008-23.009c-7.929-7.928-7.929-20.783 0-28.712L-51.721-51.721c7.929-7.928 20.784-7.928 28.712 0L0-28.712C7.929-20.784 7.929-7.929 0 0Z" style="stroke-width: 7; stroke-linecap: round; stroke-linejoin: round; stroke-miterlimit: 10; stroke-dasharray: none; stroke-opacity: 1;" transform="translate(453.228 308.55)" fill="none" stroke="#000000" stroke-width="7" stroke-linecap="round" stroke-linejoin="round" stroke-miterlimit="10" stroke-dasharray="none" stroke-opacity="" data-original="#000000" class=""></path><path d="m0 0-77.682-77.681 61.791-10.548 10.548-61.791 61.791-10.547 10.547-61.791L239.35-50.003" style="stroke-width: 7; stroke-linecap: round; stroke-linejoin: round; stroke-miterlimit: 10; stroke-dasharray: none; stroke-opacity: 1;" transform="translate(103.707 248.383)" fill="none" stroke="#000000" stroke-width="7" stroke-linecap="round" stroke-linejoin="round" stroke-miterlimit="10" stroke-dasharray="none" stroke-opacity="" data-original="#000000" class=""></path><path d="m0 0 37.236 37.236-144.677 144.677-131.91-131.91" style="stroke-width: 7; stroke-linecap: round; stroke-linejoin: round; stroke-miterlimit: 10; stroke-dasharray: none; stroke-opacity: 1;" transform="translate(364.27 219.593)" fill="none" stroke="#000000" stroke-width="7" stroke-linecap="round" stroke-linejoin="round" stroke-miterlimit="10" stroke-dasharray="none" stroke-opacity="" data-original="#000000" class=""></path><path d="m0 0-10.547 61.791-61.791 10.547-10.548 61.791-61.791 10.548.003.002-.003-.001-10.843-67.79 87.732-87.731L.002 0l.001.003Z" style="stroke-width: 7; stroke-linecap: round; stroke-linejoin: round; stroke-miterlimit: 10; stroke-dasharray: none; stroke-opacity: 1;" transform="translate(170.702 26.025)" fill="none" stroke="#000000" stroke-width="7" stroke-linecap="round" stroke-linejoin="round" stroke-miterlimit="10" stroke-dasharray="none" stroke-opacity="" data-original="#000000" class=""></path><path d="m0 0-7.114-44.455c-4.736-29.566 20.824-55.126 50.39-50.39l44.455 7.114z" style="stroke-width: 7; stroke-linecap: round; stroke-linejoin: round; stroke-miterlimit: 10; stroke-dasharray: none; stroke-opacity: 1;" transform="translate(15.183 102.914)" fill="none" stroke="#000000" stroke-width="7" stroke-linecap="round" stroke-linejoin="round" stroke-miterlimit="10" stroke-dasharray="none" stroke-opacity="" data-original="#000000" class=""></path></g></g></svg>