<svg xmlns="http://www.w3.org/2000/svg" version="1.1" xmlns:xlink="http://www.w3.org/1999/xlink" width="100" height="100" x="0" y="0" viewBox="0 0 471 472" style="enable-background:new 0 0 512 512" xml:space="preserve" class=""><g><path fill="#dce9ef" d="M224.5 408.352S184.5 376 16.5 360v80h160a56.286 56.286 0 0 1 48-31.648zM240.5 408.352S280.5 376 448.5 360v80h-160a56.286 56.286 0 0 0-48-31.648zm0 0" opacity="1" data-original="#dce9ef"></path><path fill="#58b1cc" d="M16.5 400h104v16h-104zM344.5 400h104v16h-104zM312.5 400h16v16h-16zm0 0" opacity="1" data-original="#58b1cc"></path><path fill="#dcd0f7" d="M224.5 304s104-64 24-136-93.504-120-80-160c0 0-100.887 100.398-8 184 80 72 64 112 64 112zM288.5 160s-60.879-36.977-16-72 47.574-60.543 40-80c0 0 68.113 55.328 16 96-44.879 35.023-40 56-40 56zm0 0" opacity="1" data-original="#dcd0f7"></path><path fill="#d9176c" d="M232.5 216h16v16h-16zM208.5 192h16v16h-16zm0 0" opacity="1" data-original="#d9176c"></path><path fill="#ffd782" d="M424.5 208c-13.254 0-24-10.746-24-24a8 8 0 0 0-16 0c0 13.254-10.746 24-24 24a8 8 0 0 0 0 16c13.254 0 24 10.746 24 24a8 8 0 0 0 16 0c0-13.254 10.746-24 24-24a8 8 0 0 0 0-16zm-32 16.246a40.048 40.048 0 0 0-8.246-8.246 40.048 40.048 0 0 0 8.246-8.246 40.048 40.048 0 0 0 8.246 8.246 40.048 40.048 0 0 0-8.246 8.246zM160.5 288c-13.254 0-24-10.746-24-24a8 8 0 0 0-16 0c0 13.254-10.746 24-24 24a8 8 0 0 0 0 16c13.254 0 24 10.746 24 24a8 8 0 0 0 16 0c0-13.254 10.746-24 24-24a8 8 0 0 0 0-16zm-32 16.246a40.048 40.048 0 0 0-8.246-8.246 40.048 40.048 0 0 0 8.246-8.246 40.048 40.048 0 0 0 8.246 8.246 40.048 40.048 0 0 0-8.246 8.246zM264.5 32c-13.254 0-24-10.746-24-24a8 8 0 0 0-16 0c0 13.254-10.746 24-24 24a8 8 0 0 0 0 16c13.254 0 24 10.746 24 24a8 8 0 0 0 16 0c0-13.254 10.746-24 24-24a8 8 0 0 0 0-16zm-32 16.246A40.048 40.048 0 0 0 224.254 40a40.048 40.048 0 0 0 8.246-8.246A40.048 40.048 0 0 0 240.746 40a40.048 40.048 0 0 0-8.246 8.246zm0 0" opacity="1" data-original="#ffd782"></path><g fill="#d9176c"><path d="M320.5 152h16v16h-16zM320.5 256h16v16h-16zM112.5 216h16v16h-16zM192.5 336h16v16h-16zM40.5 296h16v16h-16zm0 0" fill="#d9176c" opacity="1" data-original="#d9176c"></path></g><path fill="#87cee9" d="M304.5 320c0 8.836-7.164 16-16 16s-16-7.164-16-16 7.164-16 16-16 16 7.164 16 16zM88.5 184c0 8.836-7.164 16-16 16s-16-7.164-16-16 7.164-16 16-16 16 7.164 16 16zM416.5 104c0 8.836-7.164 16-16 16s-16-7.164-16-16 7.164-16 16-16 16 7.164 16 16zm0 0" opacity="1" data-original="#87cee9"></path><path fill="#8d28ad" d="M264.5 472c0-17.672-14.328-32-32-32s-32 14.328-32 32H.5v-32h176c8-16 24-32 56-32s48 16 56 32h176v32zm0 0" opacity="1" data-original="#8d28ad"></path><path fill="#5c067c" d="M.5 440h64v32H.5zM400.5 440h64v32h-64zm0 0" opacity="1" data-original="#5c067c"></path></g></svg>