<svg width="981" height="606" viewBox="0 0 981 606" fill="none" xmlns="http://www.w3.org/2000/svg">
<path d="M20.2483 216.5C-17.5038 289.512 0.335648 380.234 73.248 414C140.217 445.014 164.773 424.922 232.926 455.328C316.248 492.5 269.167 590.15 375.748 587.5C447.16 585.725 504.349 531.936 573.922 515.228C671.07 491.898 698.004 604.787 797.748 604.787C840.02 604.787 1009.25 545.5 975.226 400.08C958.282 327.654 839.986 385.975 836.573 311.102C832.936 231.297 926.19 301.216 926.19 142.451C926.19 56.7511 911.544 39.1704 823.61 9.27496C699.995 -32.7508 662.267 100.095 533.904 77.8984C456.315 64.4816 393.586 2.17446 315.216 9.27496C244.855 15.6499 274.589 60.1183 214.248 98C151.7 137.268 73.2477 114 20.2483 216.5Z" fill="#EABE65" stroke="#EABE65" stroke-width="2"/>
</svg>
