<svg xmlns="http://www.w3.org/2000/svg" version="1.1" xmlns:xlink="http://www.w3.org/1999/xlink" width="100" height="100" x="0" y="0" viewBox="0 0 511.997 511.997" style="enable-background:new 0 0 512 512" xml:space="preserve" class=""><g><path d="M366.395 507.606a14.95 14.95 0 0 1-4.392-10.607c0-8.286 6.712-14.998 14.998-14.998 57.901 0 104.999-47.098 104.999-104.999 0-8.286 6.712-14.998 14.998-14.998s14.998 6.712 14.998 14.998c0 74.433-60.563 134.996-134.996 134.996a14.958 14.958 0 0 1-10.605-4.392z" style="" fill="#5cc178" data-original="#5cc178"></path><path d="M366.395 447.612a14.95 14.95 0 0 1-4.392-10.607c-.01-8.276 6.712-14.998 14.998-14.998 24.807-.01 44.995-20.198 45.006-45.006 0-8.286 6.722-15.009 14.998-14.998 8.286 0 14.998 6.712 14.998 14.998-.01 41.339-33.664 74.992-75.002 75.002a14.945 14.945 0 0 1-10.606-4.391z" style="" fill="#5cc178" data-original="#5cc178"></path><path d="M4.392 145.603A14.952 14.952 0 0 1 0 134.996C0 60.563 60.563 0 134.996 0c8.286 0 14.998 6.712 14.998 14.998s-6.712 14.998-14.998 14.998c-57.901 0-104.999 47.098-104.999 104.999 0 8.286-6.712 14.998-14.998 14.998a14.949 14.949 0 0 1-10.607-4.39z" style="" fill="#8edb5a" data-original="#8edb5a"></path><path d="M64.385 145.603a14.95 14.95 0 0 1-4.392-10.607c.01-41.339 33.664-74.992 75.002-75.002 8.286 0 14.998 6.712 14.998 14.998.01 8.276-6.712 14.998-14.998 14.998C110.188 90 90 110.188 89.989 134.996c0 8.286-6.722 15.009-14.998 14.998a14.955 14.955 0 0 1-10.606-4.391z" style="" fill="#8edb5a" data-original="#8edb5a"></path><path d="M502.701 261.883 398.9 365.682c-47.1 47.1-109.199 78.001-175.199 86.4-4.801.3-9.3-1.199-12.601-4.499l-53.099-53.101-61.8-61.5c-3.001-3.3-4.501-7.8-4.2-12.301l19.799-189.3c1.8-15.899 15-27.599 30.601-27.599 17.1 0 30.601 13.801 30.601 30.601l.3 75.3 159.6-159.901c9-8.699 23.399-8.699 32.098 0 8.701 9 8.701 23.101 0 31.8l-101.1 101.1c-5.7 5.7-5.7 15.3 0 21.301 6 5.7 15.3 5.7 21 0l122.401-122.4c9-8.699 23.101-8.699 31.8 0 9 9 9 23.101 0 31.8L316.7 235.783c-5.7 5.7-5.7 15.3 0 21l.3.298c5.7 5.7 15.3 5.7 21 0l101.1-101.1c9-9 23.101-8.699 31.8 0 9 9.001 9 22.8 0 31.8l-101.1 101.1c-5.7 5.7-5.7 15.3 0 21h.3c5.7 6 15.3 6 20.999 0l79.801-79.799c9-8.701 23.101-8.701 31.8 0 9 9.001 9 23.1.001 31.801z" style="" fill="#ffb99c" data-original="#ffb99c" class=""></path><path d="M502.701 261.883 398.9 365.682c-47.1 47.1-109.199 78.001-175.199 86.4-4.801.3-9.3-1.199-12.601-4.499l-53.099-53.101L316.7 235.783c-5.7 5.7-5.7 15.3 0 21l.3.298c5.7 5.7 15.3 5.7 21 0l101.1-101.1c9-9 23.101-8.699 31.8 0 9 9.001 9 22.8 0 31.8l-101.1 101.1c-5.7 5.7-5.7 15.3 0 21h.3c5.7 6 15.3 6 20.999 0l79.801-79.799c9-8.701 23.101-8.701 31.8 0 9 9.001 9 23.1.001 31.801z" style="" fill="#ff9468" data-original="#ff9468"></path></g></svg>