<svg width="458" height="383" viewBox="0 0 258 183" fill="none" xmlns="http://www.w3.org/2000/svg">
<path fill-rule="evenodd" clip-rule="evenodd" d="M222.723 34.0099C202.102 13.2856 166.772 0.0818966 126.964 1.02197C79.6357 2.13965 39.5735 22.9291 23.4265 51.4601C10.3882 69.6161 0.0755668 91.958 0.376809 104.714C0.941718 128.635 19.2875 147.605 41.3533 147.084C41.9465 147.07 42.5363 147.042 43.1225 147C43.3689 147.715 43.6397 148.447 43.9358 149.198C44.3509 166.778 70.2267 183.412 91.8636 182.901C105.825 182.572 122.63 177.481 132.685 169.188C141.963 177.082 156.84 181.367 170.46 181.045C190.857 180.564 212.959 160.772 215.095 142.788C216.329 142.887 217.578 142.922 218.839 142.892C240.648 142.377 257.868 122.49 257.301 98.472C256.839 78.8943 240.544 45.4332 222.723 34.0099Z" fill="#FFD787"/>
</svg>
