<svg xmlns="http://www.w3.org/2000/svg" version="1.1" xmlns:xlink="http://www.w3.org/1999/xlink" width="100" height="100" x="0" y="0" viewBox="0 0 512 512" style="enable-background:new 0 0 512 512" xml:space="preserve" class=""><g><path fill="#e175a5" d="M361.948 390.631h-9.699a46.618 46.618 0 0 1-32.181-12.897c-27.122-25.878-55.578-55.565-104.288-55.565-81.283 0-111.602 101.386-162.566 101.386H20.172C9.031 423.554 0 432.586 0 443.727s9.031 20.172 20.172 20.172h342.499c19.994 0 36.247-16.017 36.628-35.92.392-20.538-16.81-37.348-37.351-37.348z" opacity="1" data-original="#e175a5" class=""></path><path fill="#ca59a6" d="M361.948 390.631h-9.7a46.618 46.618 0 0 1-32.181-12.897c-27.122-25.878-55.578-55.565-104.288-55.565-8.643 0-16.704 1.156-24.281 3.204 44.88 2.395 72.035 29.988 97.957 54.195 8.673 8.099 20.194 12.622 32.181 12.622h9.699c20.542 0 37.744 16.453 37.351 36.553-.381 19.479-16.634 35.155-36.628 35.155h30.612c19.994 0 36.247-16.017 36.628-35.92.393-20.537-16.809-37.347-37.35-37.347z" opacity="1" data-original="#ca59a6"></path><path fill="#514898" d="M352.923 427.298a7.725 7.725 0 0 1-7.726-7.726v-5.05a7.726 7.726 0 1 1 15.452 0v5.05a7.726 7.726 0 0 1-7.726 7.726z" opacity="1" data-original="#514898"></path><path fill="#e175a5" d="m404.854 171.896-9.981 73.344a34.008 34.008 0 0 1-57.047 20.141l-25.119-23.718a14.886 14.886 0 0 0-11.233-4.027l-21.737 1.485c-26.997 1.845-51.426-15.948-57.952-42.21a55.798 55.798 0 0 1 13.588-51.77l51.824-54.864 92.279 1.168z" opacity="1" data-original="#e175a5" class=""></path><path fill="#ca59a6" d="m379.476 91.447-92.279-1.168-.274.29 69.366.878 25.378 80.45-9.981 73.344a34.006 34.006 0 0 1-20.543 26.775c-.516.217-1.041.4-1.563.589 7.886 2.86 16.714 2.782 24.75-.589a34.007 34.007 0 0 0 20.542-26.775l9.981-73.344z" opacity="1" data-original="#ca59a6"></path><path fill="#e0aea2" d="M512 125.367v91.782c0 2.282-2.389 3.777-4.441 2.78l-87.428-42.484-66.239 45.987a19.225 19.225 0 0 1-10.978 3.441c-5.759 0-11.433-2.562-15.223-7.421-5.801-7.442-5.367-17.986 1.037-24.931l35.793-38.81c6.722-7.284 6.405-18.6-.699-25.503L348.62 115.44c-9.697-9.422-24.582-10.968-36.015-3.748l-40.504 25.587a11.72 11.72 0 0 0-5.071 6.839l-5.854 24.148c-3.928 14.26-18.569 22.718-32.881 19.013l-5.06-1.313a8.428 8.428 0 0 1-6.13-9.941l9.75-45.585a36.103 36.103 0 0 1 13.339-21.056l71.659-54.859c9.93-7.601 23.428-8.532 34.321-2.393l66.737 37.698a165.156 165.156 0 0 0 35.538 14.916l61.315 17.65a3.092 3.092 0 0 1 2.236 2.971z" opacity="1" data-original="#e0aea2"></path><path fill="#d79b8c" d="M428.275 158.92a9.346 9.346 0 0 0-9.415.729l-61.745 42.867a19.224 19.224 0 0 1-10.978 3.44c-5.759 0-11.433-2.562-15.223-7.421a19.273 19.273 0 0 1-2.321-3.856c-6.269 6.946-6.661 17.384-.903 24.771 3.79 4.859 9.464 7.421 15.223 7.421 3.801 0 7.633-1.122 10.978-3.44l66.239-45.987 87.428 42.485c2.053.997 4.441-.498 4.441-2.78v-17.543z" opacity="1" data-original="#d79b8c"></path><g fill="#77d1b3"><path d="M210.594 279.387c-11.899 0-26.985 25.36-26.985 40.264s12.082 19.575 26.985 19.575 26.985-4.671 26.985-19.575-15.087-40.264-26.985-40.264zM111.554 327.578c-9.384 7.316-5.69 36.592 3.473 48.346s21.563 8.01 33.317-1.153 18.41-20.275 9.247-32.029c-9.162-11.755-36.653-22.48-46.037-15.164zM311.737 314.345c9.384 7.316 5.69 36.592-3.473 48.346s-21.563 8.01-33.317-1.153-18.41-20.275-9.247-32.029 36.653-22.48 46.037-15.164z" fill="#77d1b3" opacity="1" data-original="#77d1b3"></path></g></g></svg>