<svg xmlns="http://www.w3.org/2000/svg" version="1.1" xmlns:xlink="http://www.w3.org/1999/xlink" width="100" height="100" x="0" y="0" viewBox="0 0 512 512" style="enable-background:new 0 0 512 512" xml:space="preserve" class=""><g><path d="M423.02 282.158H225.091V170.661h182.035c8.778 0 15.894 7.116 15.894 15.894v95.603z" style="" fill="#e86478" data-original="#e86478" class=""></path><path d="M435.014 282.158H26.485C11.858 282.158 0 294.016 0 308.643v61.831c0 14.627 11.858 26.485 26.485 26.485h460.858c20.305 0 31.875-23.201 19.659-39.419l-47.625-63.23a30.497 30.497 0 0 0-24.363-12.152z" style="" fill="#f8ca4f" data-original="#f8ca4f" class=""></path><path d="M40.805 370.473v-61.831c0-14.627 11.858-26.485 26.485-26.485H26.485C11.858 282.158 0 294.015 0 308.643v61.831c0 14.627 11.858 26.485 26.485 26.485H67.29c-14.627-.001-26.485-11.859-26.485-26.486z" style="opacity:0.1;enable-background:new ;" fill="#000000" opacity="1" data-original="#000000"></path><circle cx="126.75" cy="396.959" r="79.908" style="" fill="#e86478" data-original="#e86478" class=""></circle><circle cx="126.75" cy="396.959" r="35.05" style="opacity:0.15;enable-background:new ;" fill="#000000" opacity="1" data-original="#000000"></circle><circle cx="361.14" cy="396.959" r="79.908" style="" fill="#e86478" data-original="#e86478" class=""></circle><circle cx="361.14" cy="396.959" r="35.05" style="opacity:0.15;enable-background:new ;" fill="#000000" opacity="1" data-original="#000000"></circle><path d="M40.805 101.089h184.29v181.07H40.805z" style="" fill="#61c6ad" data-original="#61c6ad"></path><path d="M40.805 101.089h184.29v30.7H40.805z" style="opacity:0.1;enable-background:new ;" fill="#000000" opacity="1" data-original="#000000"></path><path d="M237.391 35.132H28.505c-10.563 0-19.127 8.563-19.127 19.127v27.702c0 10.563 8.563 19.127 19.127 19.127h208.886c10.563 0 19.127-8.563 19.127-19.127V54.259c0-10.564-8.563-19.127-19.127-19.127z" style="" fill="#92d2e7" data-original="#92d2e7"></path><path d="M43.548 81.96V54.259c0-10.563 8.563-19.127 19.127-19.127h-34.17c-10.563 0-19.127 8.563-19.127 19.127V81.96c0 10.563 8.563 19.127 19.127 19.127h34.169c-10.563 0-19.126-8.563-19.126-19.127z" style="opacity:0.1;enable-background:new ;" fill="#000000" opacity="1" data-original="#000000"></path><path d="M318.74 103.219h74.896v67.45H318.74z" style="" fill="#f8ca4f" data-original="#f8ca4f" class=""></path><path d="M318.74 103.219h74.896v23.2H318.74z" style="opacity:0.1;enable-background:new ;" fill="#000000" opacity="1" data-original="#000000"></path><path d="M400.498 103.214h-88.616c-6.659 0-12.058-5.399-12.058-12.058V68.07c0-6.66 5.399-12.058 12.058-12.058h88.616c6.66 0 12.058 5.399 12.058 12.058v23.086c0 6.66-5.398 12.058-12.058 12.058z" style="" fill="#92d2e7" data-original="#92d2e7"></path><path d="M324.056 91.156V68.07c0-6.66 5.398-12.058 12.058-12.058h-24.231c-6.66 0-12.058 5.399-12.058 12.058v23.086c0 6.66 5.398 12.058 12.058 12.058h24.231c-6.66 0-12.058-5.398-12.058-12.058z" style="opacity:0.1;enable-background:new ;" fill="#000000" opacity="1" data-original="#000000"></path><circle cx="132.95" cy="185.979" r="44.31" style="" fill="#ffffff" data-original="#ffffff"></circle><path d="M225.09 170.659h33.831v111.5H225.09z" style="opacity:0.1;enable-background:new ;" fill="#000000" opacity="1" data-original="#000000"></path></g></svg>