<svg xmlns="http://www.w3.org/2000/svg" version="1.1" xmlns:xlink="http://www.w3.org/1999/xlink" width="100" height="100" x="0" y="0" viewBox="0 0 512 512" style="enable-background:new 0 0 512 512" xml:space="preserve" class=""><g><path d="M256 395.781c118.225 0 213.829-85.957 240.842-124.25 5.008-7.099 7.658-12.56 7.658-15.531s-2.65-8.432-7.658-15.531C469.829 202.176 374.225 116.219 256 116.219c-118.225 0-213.829 85.957-240.842 124.25C10.15 247.568 7.5 253.029 7.5 256s2.65 8.432 7.658 15.531C42.171 309.824 137.775 395.781 256 395.781z" style="" fill="#dcf5f8" data-original="#dcf5f8" class=""></path><path d="M496.842 240.469c-21.595-30.612-87.026-91.686-172.806-114.954 65.835 28.262 114.71 75.302 132.806 100.954 5.008 7.099 7.658 12.56 7.658 15.531s-2.65 8.432-7.658 15.531C429.829 295.824 334.225 381.781 216 381.781c-23.712 0-46.514-3.458-68.036-9.296 32.444 13.928 69.007 23.296 108.036 23.296 118.225 0 213.829-85.957 240.842-124.25 5.008-7.099 7.658-12.56 7.658-15.531s-2.65-8.432-7.658-15.531z" style="" fill="#a6e7f0" data-original="#a6e7f0" class=""></path><path d="M361.199 283.543a108.882 108.882 0 0 0 3.52-27.543c0-60.044-48.675-108.719-108.719-108.719S147.281 195.956 147.281 256c0 9.516 1.223 18.746 3.52 27.543h210.398z" style="" fill="#2ed1e2" data-original="#2ed1e2"></path><path d="M299.058 228.473 256 271.531l15.531 31.062 53.188 37.657c17.576-14.353 30.576-34.096 36.48-56.708l-55.07-55.07a5 5 0 0 0-7.071.001z" style="" fill="#4fc123" data-original="#4fc123" class=""></path><path d="M256 78.723c-8.578 0-15.531-6.954-15.531-15.531V32.129c0-8.578 6.954-15.531 15.531-15.531 8.578 0 15.531 6.954 15.531 15.531v31.063c0 8.577-6.953 15.531-15.531 15.531zM338.183 96.138c-6.065-6.065-6.065-15.899 0-21.965l21.965-21.965c6.065-6.065 15.899-6.065 21.964 0 6.065 6.065 6.065 15.899 0 21.964l-21.965 21.965c-6.065 6.067-15.898 6.067-21.964.001zM173.817 96.138c6.065-6.065 6.065-15.899 0-21.965l-21.965-21.965c-6.065-6.065-15.899-6.065-21.964 0-6.065 6.065-6.065 15.899 0 21.964l21.965 21.965c6.065 6.067 15.898 6.067 21.964.001zM256 433.277c-8.578 0-15.531 6.954-15.531 15.531v31.063c0 8.578 6.954 15.531 15.531 15.531 8.578 0 15.531-6.954 15.531-15.531v-31.063c0-8.577-6.953-15.531-15.531-15.531zM338.183 415.861c-6.065 6.065-6.065 15.899 0 21.965l21.965 21.965c6.065 6.065 15.899 6.065 21.964 0 6.065-6.065 6.065-15.899 0-21.964l-21.965-21.965c-6.065-6.066-15.898-6.066-21.964-.001zM173.817 415.861c6.065 6.065 6.065 15.899 0 21.965l-21.965 21.965c-6.065 6.065-15.899 6.065-21.964 0-6.065-6.065-6.065-15.899 0-21.964l21.965-21.965c6.065-6.066 15.898-6.066 21.964-.001z" style="" fill="#ffc344" data-original="#ffc344"></path><path d="M150.801 283.543c12.195 46.707 54.671 81.176 105.199 81.176 26.066 0 49.99-9.174 68.719-24.468L212.942 228.473a5 5 0 0 0-7.071 0l-55.07 55.07z" style="" fill="#80d261" data-original="#80d261" class=""></path><circle cx="256" cy="193.875" r="15.531" style="" fill="#ffc344" data-original="#ffc344"></circle><path d="M116.491 155.043c-49.815 27.836-86.256 64.054-101.332 85.426C10.15 247.568 7.5 253.029 7.5 256s2.65 8.432 7.658 15.531C42.171 309.824 137.775 395.781 256 395.781s213.829-85.957 240.842-124.25c5.008-7.099 7.658-12.56 7.658-15.531s-2.65-8.432-7.658-15.531C469.829 202.176 374.225 116.219 256 116.219c-38.778 0-75.123 9.248-107.412 23.028" style="stroke-width:15;stroke-linecap:round;stroke-linejoin:round;stroke-miterlimit:10;" fill="none" stroke="#000000" stroke-width="15" stroke-linecap="round" stroke-linejoin="round" stroke-miterlimit="10" data-original="#000000" opacity="0" class=""></path><path d="M339.051 185.837c-19.943-23.582-49.748-38.556-83.051-38.556-60.044 0-108.719 48.675-108.719 108.719 0 9.516 1.223 18.746 3.52 27.543M361.199 283.543a108.882 108.882 0 0 0 3.52-27.543c0-14.349-2.78-28.049-7.83-40.59M256 78.723h0c-8.578 0-15.531-6.954-15.531-15.531V32.129c0-8.578 6.954-15.531 15.531-15.531h0c8.578 0 15.531 6.954 15.531 15.531v31.063c0 8.577-6.953 15.531-15.531 15.531zM338.183 96.138h0c-6.065-6.065-6.065-15.899 0-21.965l21.965-21.965c6.065-6.065 15.899-6.065 21.964 0h0c6.065 6.065 6.065 15.899 0 21.964l-21.965 21.965c-6.065 6.067-15.898 6.067-21.964.001zM173.817 96.138h0c6.065-6.065 6.065-15.899 0-21.965l-21.965-21.965c-6.065-6.065-15.899-6.065-21.964 0h0c-6.065 6.065-6.065 15.899 0 21.964l21.965 21.965c6.065 6.067 15.898 6.067 21.964.001zM256 433.277h0c-8.578 0-15.531 6.954-15.531 15.531v31.063c0 8.578 6.954 15.531 15.531 15.531h0c8.578 0 15.531-6.954 15.531-15.531v-31.063c0-8.577-6.953-15.531-15.531-15.531zM338.183 415.861h0c-6.065 6.065-6.065 15.899 0 21.965l21.965 21.965c6.065 6.065 15.899 6.065 21.964 0h0c6.065-6.065 6.065-15.899 0-21.964l-21.965-21.965c-6.065-6.066-15.898-6.066-21.964-.001zM173.817 415.861h0c6.065 6.065 6.065 15.899 0 21.965l-21.965 21.965c-6.065 6.065-15.899 6.065-21.964 0h0c-6.065-6.065-6.065-15.899 0-21.964l21.965-21.965c6.065-6.066 15.898-6.066 21.964-.001z" style="stroke-width:15;stroke-linecap:round;stroke-linejoin:round;stroke-miterlimit:10;" fill="none" stroke="#000000" stroke-width="15" stroke-linecap="round" stroke-linejoin="round" stroke-miterlimit="10" data-original="#000000" opacity="0" class=""></path><path d="m282.65 298.181-69.708-69.708a5 5 0 0 0-7.071 0l-55.07 55.07c12.195 46.707 54.671 81.176 105.199 81.176 26.066 0 49.99-9.174 68.719-24.468l-16.657-16.657" style="stroke-width:15;stroke-linecap:round;stroke-linejoin:round;stroke-miterlimit:10;" fill="none" stroke="#000000" stroke-width="15" stroke-linecap="round" stroke-linejoin="round" stroke-miterlimit="10" data-original="#000000" opacity="0" class=""></path><path d="M324.719 340.25c17.576-14.353 30.576-34.096 36.48-56.708l-55.07-55.07a5 5 0 0 0-7.071 0L256 271.531" style="stroke-width:15;stroke-linecap:round;stroke-linejoin:round;stroke-miterlimit:10;" fill="none" stroke="#000000" stroke-width="15" stroke-linecap="round" stroke-linejoin="round" stroke-miterlimit="10" data-original="#000000" opacity="0" class=""></path><circle cx="256" cy="193.875" r="15.531" style="stroke-width:15;stroke-linecap:round;stroke-linejoin:round;stroke-miterlimit:10;" fill="none" stroke="#000000" stroke-width="15" stroke-linecap="round" stroke-linejoin="round" stroke-miterlimit="10" data-original="#000000" opacity="0" class=""></circle></g></svg>