<svg xmlns="http://www.w3.org/2000/svg" version="1.1" xmlns:xlink="http://www.w3.org/1999/xlink" width="110" height="110" x="0" y="0" viewBox="0 0 682.667 682.667" style="enable-background:new 0 0 512 512" xml:space="preserve" class=""><g transform="matrix(-1,0,0,1,682.6655158996582,0)"><defs><clipPath id="a" clipPathUnits="userSpaceOnUse"><path d="M0 512h512V0H0Z" fill="#ffd787" opacity="1" data-original="#000000"></path></clipPath></defs><g clip-path="url(#a)" transform="matrix(1.33333 0 0 -1.33333 0 682.667)"><path d="M0 0c0-5.181-2.585-9.381-5.773-9.381-3.188 0-5.773 4.2-5.773 9.381 0 5.182 2.585 9.382 5.773 9.382C-2.585 9.382 0 5.182 0 0" style="fill-opacity:1;fill-rule:nonzero;stroke:none" transform="translate(63.42 254.313)" fill="#ffd787" data-original="#000000" opacity="1"></path><path d="M0 0c0-5.181-2.585-9.381-5.773-9.381-3.188 0-5.773 4.2-5.773 9.381 0 5.182 2.585 9.382 5.773 9.382C-2.585 9.382 0 5.182 0 0Z" style="stroke-width:15;stroke-linecap:round;stroke-linejoin:round;stroke-miterlimit:10;stroke-dasharray:none;stroke-opacity:1" transform="translate(63.42 254.313)" fill="none" stroke="#ffd787" stroke-width="15" stroke-linecap="round" stroke-linejoin="round" stroke-miterlimit="10" stroke-dasharray="none" stroke-opacity="" data-original="#000000" opacity="1" class=""></path><path d="M0 0c15.683 3.727 25.907 12.408 32.327 20.517 4.925 6.22.08 15.301-7.829 14.673-51.925-4.125-70.652 31.633-86.301 64.504C-79.086 136-120.416 215.181-195.562 215.181c-75.144 0-126.244-97.138-150.29-97.138-24.046 0-33.064 32.513-61.985 31.762-28.921-.752-53.85-23.783-53.85-55.344 0-19.39 25.607-27.002 62.209-25.004 10.252.56 21.208-1.601 31.44-5.707" style="stroke-width:15;stroke-linecap:round;stroke-linejoin:round;stroke-miterlimit:10;stroke-dasharray:none;stroke-opacity:1" transform="translate(469.687 141.883)" fill="none" stroke="#ffd787" stroke-width="15" stroke-linecap="round" stroke-linejoin="round" stroke-miterlimit="10" stroke-dasharray="none" stroke-opacity="" data-original="#000000" opacity="1" class=""></path><path d="M0 0c9.898-9.106 16.384-20.266 16.384-31.813v-41.995c0-12.738 10.327-23.066 23.066-23.066 12.739 0 23.067 10.328 23.067 23.066v30.858h111.772c4.183-4.914 10.08-9.086 18.33-11.742v-18.596c0-12.932 10.583-23.827 23.513-23.582 12.533.238 22.62 10.473 22.62 23.062v17.111l19.497 27.065c21.44-11.26 39.398-17.075 54.4-19.204" style="stroke-width:15;stroke-linecap:round;stroke-linejoin:round;stroke-miterlimit:10;stroke-dasharray:none;stroke-opacity:1" transform="translate(127.09 189.816)" fill="none" stroke="#ffd787" stroke-width="15" stroke-linecap="round" stroke-linejoin="round" stroke-miterlimit="10" stroke-dasharray="none" stroke-opacity="" data-original="#000000" opacity="1" class=""></path><path d="M0 0s-1.465-29.837 12.929-43.705" style="stroke-width:15;stroke-linecap:round;stroke-linejoin:round;stroke-miterlimit:10;stroke-dasharray:none;stroke-opacity:1" transform="translate(288.451 190.571)" fill="none" stroke="#ffd787" stroke-width="15" stroke-linecap="round" stroke-linejoin="round" stroke-miterlimit="10" stroke-dasharray="none" stroke-opacity="" data-original="#000000" opacity="1" class=""></path><path d="M0 0c-4.452 7.779-8.989 14.319-13.149 17.856-10.343 8.792-26.311 11.589-36.633 12.458-5.656.476-10.492-4.033-10.414-9.707.141-10.358 1.81-26.483 9.856-37.417 3.459-4.701 10.309-10.071 18.443-15.398" style="stroke-width:15;stroke-linecap:round;stroke-linejoin:round;stroke-miterlimit:10;stroke-dasharray:none;stroke-opacity:1" transform="translate(174.241 303.018)" fill="none" stroke="#ffd787" stroke-width="15" stroke-linecap="round" stroke-linejoin="round" stroke-miterlimit="10" stroke-dasharray="none" stroke-opacity="" data-original="#000000" opacity="1" class=""></path><path d="M0 0c-3.157 9.975-6.751 18.718-10.613 23.57-8.456 10.62-23.586 16.439-33.548 19.28-5.458 1.556-11.072-1.937-12.089-7.52-1.855-10.191-3.323-26.336 2.466-38.615 2.869-6.085 9.983-13.909 18.396-21.783" style="stroke-width:15;stroke-linecap:round;stroke-linejoin:round;stroke-miterlimit:10;stroke-dasharray:none;stroke-opacity:1" transform="translate(227.08 344.508)" fill="none" stroke="#ffd787" stroke-width="15" stroke-linecap="round" stroke-linejoin="round" stroke-miterlimit="10" stroke-dasharray="none" stroke-opacity="" data-original="#000000" opacity="1" class=""></path><path d="M0 0c2.854 10.811 4.65 20.86 3.892 27.374-1.571 13.483-11.344 26.417-18.303 34.09-3.812 4.204-10.424 4.204-14.235 0-6.959-7.673-16.733-20.607-18.303-34.09-.751-6.446.999-16.353 3.803-27.035" style="stroke-width:15;stroke-linecap:round;stroke-linejoin:round;stroke-miterlimit:10;stroke-dasharray:none;stroke-opacity:1" transform="translate(297.313 354.44)" fill="none" stroke="#ffd787" stroke-width="15" stroke-linecap="round" stroke-linejoin="round" stroke-miterlimit="10" stroke-dasharray="none" stroke-opacity="" data-original="#000000" opacity="1" class=""></path><path d="M0 0c-.292 4.107-.841 7.93-1.428 11.155-1.016 5.583-6.631 9.076-12.088 7.52-9.962-2.841-25.092-8.66-33.547-19.28-3.723-4.676-7.197-12.966-10.27-22.491" style="stroke-width:15;stroke-linecap:round;stroke-linejoin:round;stroke-miterlimit:10;stroke-dasharray:none;stroke-opacity:1" transform="translate(378.848 368.683)" fill="none" stroke="#ffd787" stroke-width="15" stroke-linecap="round" stroke-linejoin="round" stroke-miterlimit="10" stroke-dasharray="none" stroke-opacity="" data-original="#000000" opacity="1" class=""></path><path d="M0 0c7.36 6.89 13.729 13.742 17.127 19.423" style="stroke-width:15;stroke-linecap:round;stroke-linejoin:round;stroke-miterlimit:10;stroke-dasharray:none;stroke-opacity:1" transform="translate(356.559 319.44)" fill="none" stroke="#ffd787" stroke-width="15" stroke-linecap="round" stroke-linejoin="round" stroke-miterlimit="10" stroke-dasharray="none" stroke-opacity="" data-original="#000000" opacity="1" class=""></path><path d="M0 0c11.026 5.422 20.857 11.253 25.588 16.563 9.029 10.137 12.193 26.036 13.3 36.335.606 5.643-3.789 10.582-9.464 10.636-10.359.097-26.518-1.2-37.635-8.991-4.592-3.217-9.873-9.55-15.17-17.144" style="stroke-width:15;stroke-linecap:round;stroke-linejoin:round;stroke-miterlimit:10;stroke-dasharray:none;stroke-opacity:1" transform="translate(398.472 260.353)" fill="none" stroke="#ffd787" stroke-width="15" stroke-linecap="round" stroke-linejoin="round" stroke-miterlimit="10" stroke-dasharray="none" stroke-opacity="" data-original="#000000" opacity="1" class=""></path><path d="M0 0c9.853 4.445 18.55 9.244 22.931 13.778 8.792 9.1 12.34 23.787 13.758 33.337.779 5.232-3.128 9.998-8.412 10.262-9.643.482-24.741-.115-35.388-6.951-4.766-3.059-10.423-9.492-16.085-17.139" style="stroke-width:15;stroke-linecap:round;stroke-linejoin:round;stroke-miterlimit:10;stroke-dasharray:none;stroke-opacity:1" transform="translate(437.348 195.533)" fill="none" stroke="#ffd787" stroke-width="15" stroke-linecap="round" stroke-linejoin="round" stroke-miterlimit="10" stroke-dasharray="none" stroke-opacity="" data-original="#000000" opacity="1" class=""></path></g></g></svg>