<svg width="1676" height="1283" viewBox="0 0 1676 1283" fill="none" xmlns="http://www.w3.org/2000/svg">
<path d="M1624.38 92.471L1643.46 98.5024M1643.46 98.5024L1658.73 144.012L1612.93 164.848M1643.46 98.5024L1622.74 93.5676L1575.3 112.758M1643.46 98.5024L1596.02 118.242M1612.93 164.848L1586.75 157.171L1575.3 112.758M1612.93 164.848L1596.02 118.242M1575.3 112.758L1596.02 118.242M1618.92 63.4106L1622.74 17.3527M1618.92 63.4106L1605.29 52.4444L1610.2 2M1618.92 63.4106L1671.82 69.442L1674 20.6425L1622.74 17.3527M1622.74 17.3527L1671.82 20.6425L1664.73 6.93478L1610.2 2M1622.74 17.3527L1610.2 2M1532.22 31.6087L1578.03 20.6425L1590.57 31.6087M1532.22 31.6087V71.6353L1551.85 80.9565M1532.22 31.6087L1544.22 39.8333M1590.57 31.6087L1544.22 39.8333M1590.57 31.6087L1596.02 73.8285L1551.85 80.9565M1544.22 39.8333L1551.85 80.9565M1563.85 63.4106V69.442L1586.75 66.7005L1585.12 63.4106H1578.03L1573.66 39.8333H1567.67L1561.12 52.4444H1563.85L1567.67 49.7029L1569.85 52.4444V63.4106H1563.85ZM1638.01 33.8019L1635.28 31.6087L1643.46 25.029L1655.46 29.9638V39.8333L1646.74 47.5097L1643.46 52.4444H1655.46V60.1208H1633.65V54.6377V52.4444L1635.28 47.5097L1639.65 43.1232H1643.46L1646.74 39.8333V35.9952V33.8019L1641.28 31.6087L1639.65 33.8019H1638.01ZM1610.2 116.048L1627.65 112.758V119.886H1629.83H1633.65L1638.01 124.273L1639.65 128.659V133.594V139.077L1635.28 141.819L1629.83 144.012H1624.38H1618.92V139.077H1627.65L1629.83 135.239L1631.47 131.401L1629.83 127.014L1622.74 124.273L1618.92 127.014L1616.2 128.659L1618.92 124.273V119.886H1610.2V116.048Z" stroke="#349D8F" stroke-width="2"/>
<path d="M59.1975 44.2816L49.382 46.4272M59.1975 44.2816L101.24 125.98M59.1975 44.2816L35.7493 21.4081M26.4791 62.9241L35.7493 59.0859V50.8613M26.4791 62.9241L67.1045 144.622M26.4791 62.9241L24.0115 27.8323M35.7493 50.8613L49.382 56.8927L46.6555 47.0231L49.382 46.4272M35.7493 50.8613C35.7493 50.8613 62.919 104.999 80.3281 139.687M49.382 46.4272L93.5518 134.753M93.5518 134.753L101.24 125.98M93.5518 134.753C89.383 138.089 88.2362 141.641 80.3281 139.687M101.24 125.98C101.24 125.98 108.044 134.753 107.73 138.591C107.416 142.429 89.9611 162.964 73.3755 157.233L67.1045 144.622M67.1045 144.622C67.1045 144.622 80.4646 144.622 80.3281 139.687M24.0115 27.8323C24.0115 27.8323 19.9356 9.73818 22.662 8.64151C25.3884 7.54484 35.7493 21.4081 35.7493 21.4081M24.0115 27.8323C33.5681 27.8323 32.4775 26.1874 35.7493 21.4081" stroke="#393434" stroke-width="2"/>
<path d="M20.5213 660.52L25.429 655.037C25.429 655.037 23.3628 666.629 30.3366 668.744C36.9022 670.735 44.5147 662.713 44.5147 662.713C44.5147 662.713 50.3245 673.336 56.5115 673.131C61.4114 672.968 66.8723 666.003 66.8723 666.003C66.8723 666.003 74.7268 673.305 79.9597 671.486C84.1088 670.043 87.0486 662.713 87.0486 662.713C87.0486 662.713 95.4444 673.65 101.772 671.486C106.694 669.802 109.406 660.52 109.406 660.52C109.406 660.52 116.991 666.621 122.494 666.003C128.944 665.278 132.679 658.781 133.4 652.295C134.203 645.066 122.494 641.329 122.494 641.329C122.494 641.329 127.872 628.181 122.494 624.331C116.75 620.22 106.134 632.008 106.134 632.008C106.134 632.008 107.787 620.724 103.408 616.655C97.9449 611.579 88.6846 624.331 88.6846 624.331C88.6846 624.331 88.4584 613.994 83.7768 611.172C77.4867 607.38 66.8723 619.396 66.8723 619.396C66.8723 619.396 67.4308 608.372 61.4191 608.43C56.0446 608.482 53.2396 616.655 53.2396 616.655C53.2396 616.655 43.4259 609.969 37.9711 612.817C32.809 615.512 31.9727 626.524 31.9727 626.524C31.9727 626.524 25.5004 622.26 22.1572 624.331C18.4904 626.603 20.5213 635.297 20.5213 635.297C20.5213 635.297 13.4313 624.331 6.3433 632.008C-3.45934 642.624 7.9782 646.263 7.9782 646.263C7.9782 646.263 -2.92461 651.199 2.52633 660.52C7.97727 669.841 20.5213 660.52 20.5213 660.52Z" stroke="#B2DFF1" stroke-width="2"/>
<path d="M31.9727 702.739C36.4448 702.739 25.429 686.838 25.429 686.838C25.429 686.838 16.0492 702.739 20.5213 702.739H31.9727Z" stroke="#B2DFF1" stroke-width="2"/>
<path d="M66.8723 713.706C73.5042 707.652 59.7833 691.773 59.7833 691.773C59.7833 691.773 43.0515 707.393 49.9678 713.706C54.8558 718.167 61.9843 718.167 66.8723 713.706Z" stroke="#B2DFF1" stroke-width="2"/>
<path d="M99.0454 702.739C105.627 697.198 90.3205 682.452 90.3205 682.452C90.3205 682.452 78.0198 697.433 84.3221 702.739C88.7304 706.451 94.6371 706.451 99.0454 702.739Z" stroke="#B2DFF1" stroke-width="2"/>
<path d="M115.95 693.966C111.601 689.236 120.312 678.065 120.312 678.065C120.312 678.065 135.062 688.6 130.128 693.966C126.369 698.055 119.708 698.055 115.95 693.966Z" stroke="#B2DFF1" stroke-width="2"/>
<path d="M1488.9 1229.5L1493.4 1224.5C1493.4 1224.5 1491.5 1235.07 1497.9 1237C1503.92 1238.82 1510.9 1231.5 1510.9 1231.5C1510.9 1231.5 1516.23 1241.19 1521.9 1241C1526.39 1240.85 1531.4 1234.5 1531.4 1234.5C1531.4 1234.5 1538.6 1241.16 1543.4 1239.5C1547.2 1238.18 1549.9 1231.5 1549.9 1231.5C1549.9 1231.5 1557.6 1241.47 1563.4 1239.5C1567.91 1237.97 1570.4 1229.5 1570.4 1229.5C1570.4 1229.5 1577.35 1235.06 1582.4 1234.5C1588.31 1233.84 1591.74 1227.91 1592.4 1222C1593.14 1215.41 1582.4 1212 1582.4 1212C1582.4 1212 1587.33 1200.01 1582.4 1196.5C1577.13 1192.75 1567.4 1203.5 1567.4 1203.5C1567.4 1203.5 1568.91 1193.21 1564.9 1189.5C1559.89 1184.87 1551.4 1196.5 1551.4 1196.5C1551.4 1196.5 1551.19 1187.07 1546.9 1184.5C1541.13 1181.04 1531.4 1192 1531.4 1192C1531.4 1192 1531.91 1181.95 1526.4 1182C1521.47 1182.05 1518.9 1189.5 1518.9 1189.5C1518.9 1189.5 1509.9 1183.4 1504.9 1186C1500.17 1188.46 1499.4 1198.5 1499.4 1198.5C1499.4 1198.5 1493.46 1194.61 1490.4 1196.5C1487.04 1198.57 1488.9 1206.5 1488.9 1206.5C1488.9 1206.5 1482.4 1196.5 1475.9 1203.5C1466.91 1213.18 1477.4 1216.5 1477.4 1216.5C1477.4 1216.5 1467.4 1221 1472.4 1229.5C1477.4 1238 1488.9 1229.5 1488.9 1229.5Z" stroke="#B2DFF1" stroke-width="2"/>
<path d="M1499.4 1268C1503.5 1268 1493.4 1253.5 1493.4 1253.5C1493.4 1253.5 1484.8 1268 1488.9 1268H1499.4Z" stroke="#B2DFF1" stroke-width="2"/>
<path d="M1531.4 1278C1537.48 1272.48 1524.9 1258 1524.9 1258C1524.9 1258 1509.56 1272.24 1515.9 1278C1520.38 1282.07 1526.92 1282.07 1531.4 1278Z" stroke="#B2DFF1" stroke-width="2"/>
<path d="M1560.9 1268C1566.93 1262.95 1552.9 1249.5 1552.9 1249.5C1552.9 1249.5 1541.62 1263.16 1547.4 1268C1551.44 1271.39 1556.86 1271.39 1560.9 1268Z" stroke="#B2DFF1" stroke-width="2"/>
<path d="M1576.4 1260C1572.41 1255.69 1580.4 1245.5 1580.4 1245.5C1580.4 1245.5 1593.92 1255.11 1589.4 1260C1585.95 1263.73 1579.85 1263.73 1576.4 1260Z" stroke="#B2DFF1" stroke-width="2"/>
</svg>
