<svg xmlns="http://www.w3.org/2000/svg" version="1.1" xmlns:xlink="http://www.w3.org/1999/xlink" width="150" height="150" x="0" y="0" viewBox="0 0 480 480.033" style="enable-background:new 0 0 512 512" xml:space="preserve" class=""><g><path d="M117.809 278.398a7.995 7.995 0 0 0 7.925-6.836 8.002 8.002 0 0 0-5.62-8.828c-16.528-4.957-34.473-23.101-49.25-49.757a8 8 0 0 0-10.876-3.125 8 8 0 0 0-3.125 10.875c16.801 30.28 38.16 51.203 58.64 57.328a7.937 7.937 0 0 0 2.306.343zM200.426 100.61a88.239 88.239 0 0 1 7.59 35.39 8 8 0 0 0 16 0 104.203 104.203 0 0 0-8.91-41.762 108.315 108.315 0 0 0-34.29-43.84 8.001 8.001 0 0 0-9.601 12.801 92.223 92.223 0 0 1 29.21 37.41zM128.016 48a66.352 66.352 0 0 1 21.425 3.64 8.003 8.003 0 0 0 5.153-15.152A82.395 82.395 0 0 0 128.016 32a8 8 0 0 0 0 16zM280.113 326.762c-16.527-4.961-34.472-23.106-49.25-49.762a8 8 0 0 0-10.875-3.125 8.004 8.004 0 0 0-3.125 10.879c16.801 30.277 38.16 51.2 58.64 57.324a7.993 7.993 0 0 0 7.88-1.765 8.006 8.006 0 0 0 2.324-7.731 7.993 7.993 0 0 0-5.594-5.82zM340.816 114.398a8.001 8.001 0 0 0-9.601 12.801 92.27 92.27 0 0 1 29.195 37.36A88.23 88.23 0 0 1 368.016 200a8 8 0 0 0 16 0 104.203 104.203 0 0 0-8.91-41.762 108.315 108.315 0 0 0-34.29-43.84zM314.594 100.488A82.395 82.395 0 0 0 288.016 96a8 8 0 0 0 0 16 66.352 66.352 0 0 1 21.425 3.64 8.003 8.003 0 0 0 5.153-15.152zm0 0" fill="#eabe65" opacity="1" data-original="#000000" class=""></path><path d="M287.906 64h-.129A114.868 114.868 0 0 0 241 74.191C220.434 30.055 176.691 1.332 128.016 0c-68.184 0-128 63.55-128 136 0 62.664 43.007 147.84 99.511 170.176l-3.398 20.512a7.997 7.997 0 0 0 1.789 6.484 7.99 7.99 0 0 0 6.098 2.828h12.898l-5.066 15.2a55.653 55.653 0 0 0 6.57 48.8l5.941 8.91a39.782 39.782 0 0 1 4.672 34.844l-8.574 25.742c-1.398 4.2.875 8.73 5.07 10.129 4.2 1.395 8.735-.875 10.13-5.074l8.527-25.75A55.64 55.64 0 0 0 137.617 400l-5.945-8.91a39.746 39.746 0 0 1-4.68-34.844L133.777 336h18.239a7.998 7.998 0 0 0 6.101-2.828 8.01 8.01 0 0 0 1.79-6.485l-3.403-20.496a103.874 103.874 0 0 0 27.008-15.945c16.8 33.723 43.312 67.082 76 80.043l-3.383 20.399a7.997 7.997 0 0 0 1.789 6.484 7.99 7.99 0 0 0 6.098 2.828h12.898l-5.066 15.2a55.653 55.653 0 0 0 6.57 48.8l5.934 8.895c.64.96 1.234 1.953 1.785 2.953a7.994 7.994 0 0 0 7.031 4.168c1.336 0 2.648-.34 3.816-.985a7.996 7.996 0 0 0 3.2-10.847c-.801-1.407-1.598-2.793-2.512-4.153l-5.942-8.91a39.74 39.74 0 0 1-4.683-34.84l6.73-20.281h18.239a7.998 7.998 0 0 0 6.101-2.828 8.01 8.01 0 0 0 1.79-6.484l-3.364-20.254c22.914-8.946 44.715-28.54 63.203-57.395a224.09 224.09 0 0 0 36.27-113.285C415.848 127.39 356.016 64 287.906 64zm-271.89 72c0-63.93 52.336-120 112-120 42.953 0 82.898 28.215 101.785 71.91A120.03 120.03 0 0 1 240.016 136a139.612 139.612 0 0 1-1.16 17.602 180.094 180.094 0 0 1-4 20.742 209.386 209.386 0 0 1-54.11 97.222 90.454 90.454 0 0 1-35.555 21.84 57.903 57.903 0 0 1-25.808 1.953 60.063 60.063 0 0 1-8.598-1.96c-52.488-15.797-94.77-99-94.77-157.399zm97.441 184 1.52-9.176c.472.086.937.113 1.406.192.472.082 1.168.152 1.754.23a72.13 72.13 0 0 0 9.754.754h.254a72.688 72.688 0 0 0 9.746-.742c.582-.082 1.175-.137 1.757-.235.586-.093.938-.101 1.41-.191l1.52 9.168zm189.121 64h-29.121l1.52-9.176c.902.16 1.808.238 2.703.367.754.106 1.496.215 2.25.305 2.683.313 5.382.48 8.086.504h.218a73.99 73.99 0 0 0 12.797-1.152zm63.727-79.602c-18.055 28.145-39.809 46.7-61.543 53.09a59.23 59.23 0 0 1-7.672 1.742l-1.074.153a57.138 57.138 0 0 1-16.079 0c-.671-.094-1.32-.254-1.984-.375a60.401 60.401 0 0 1-6.488-1.473c-32.473-9.297-59.336-44.11-75.567-78.398.477-.48.934-1.024 1.399-1.512 1-1.05 1.984-2.121 2.969-3.2a201.802 201.802 0 0 0 3.472-3.945 170.785 170.785 0 0 0 2.88-3.488 163.708 163.708 0 0 0 3.312-4.207 193.78 193.78 0 0 0 2.78-3.746c1.071-1.453 2.11-2.93 3.122-4.422a145.223 145.223 0 0 0 2.672-4c1-1.52 1.976-3.066 2.945-4.625a218.76 218.76 0 0 0 2.535-4.168 300.72 300.72 0 0 0 2.746-4.8c.797-1.45 1.598-2.887 2.399-4.344.871-1.602 1.71-3.282 2.543-4.926a263.368 263.368 0 0 0 2.219-4.465 247.243 247.243 0 0 0 2.351-5.082c.68-1.512 1.367-3.016 2.024-4.535.734-1.719 1.43-3.457 2.136-5.192.606-1.527 1.23-3.046 1.813-4.578.664-1.757 1.281-3.52 1.906-5.285.543-1.527 1.094-3.058 1.602-4.594.59-1.793 1.125-3.574 1.672-5.375.46-1.511.933-3.023 1.367-4.535.511-1.816.96-3.633 1.422-5.457.378-1.48.8-2.96 1.12-4.441.434-1.863.801-3.703 1.169-5.55.289-1.427.609-2.856.863-4.274.344-1.934.61-3.84.89-5.75.192-1.313.43-2.633.59-3.938.266-2.11.434-4.191.61-6.27.094-1.074.23-2.16.304-3.203.2-3.117.31-6.207.31-9.238 0-4.344-.255-8.68-.68-12.992-.145-1.426-.4-2.84-.583-4.258-.382-2.894-.8-5.781-1.367-8.652-.328-1.656-.746-3.305-1.137-4.953-.632-2.64-1.312-5.266-2.097-7.88a140.02 140.02 0 0 0-1.64-5.034c-.407-1.192-.72-2.399-1.161-3.575A98.895 98.895 0 0 1 287.785 80h.113c59.59 0 112 55.945 112.118 119.777a207.352 207.352 0 0 1-33.711 104.621zm0 0" fill="#eabe65" opacity="1" data-original="#000000" class=""></path></g></svg>