<svg xmlns="http://www.w3.org/2000/svg" version="1.1" xmlns:xlink="http://www.w3.org/1999/xlink" width="100" height="100" x="0" y="0" viewBox="0 0 512 512" style="enable-background:new 0 0 512 512" xml:space="preserve" class=""><g><path d="M129.927 293.618 65.021 460.361c-1.43 3.685.44 5.605 4.159 4.266l69.63-25.024c3.724-1.336 8.231.453 10.02 3.977l33.317 65.639c1.791 3.528 4.542 3.443 6.113-.183l70.892-163.385" style="fill-rule:evenodd;clip-rule:evenodd;" fill="#29adfc" data-original="#29adfc"></path><path d="m374.585 311.77 25.769 177.062c.566 3.914-1.688 5.36-5.012 3.224l-62.226-40.038c-3.322-2.137-8.119-1.407-10.655 1.627l-47.219 56.469c-2.536 3.033-5.195 2.335-5.918-1.553l-32.35-175.138" style="fill-rule:evenodd;clip-rule:evenodd;" fill="#29adfc" data-original="#29adfc"></path><path d="M374.558 311.669 236.95 333.324l.655 3.561L129.9 293.519l-8.334 21.414c2.044.693 4.132 1.211 6.247 1.494 4.284.569 4.98 2.734 5.491 6.318 4.227 29.753 27.405 46.084 57.377 40.351 3.18-.609 4.904-.379 6.583 2.622 2.909 5.201 7.679 10.157 12.134 14.038 3.77 3.288 8.546 6.259 13.102 8.304a31.08 31.08 0 0 0 2.436.969c4.703 1.627 9.693 2.037 14.662 1.518l5.556-12.801 2.082 11.279c7.687-2.256 14.907-6.518 20.4-11.784 2.976-2.853 4.787-.697 7.059.646 25.736 15.183 53.653 6.971 67.467-19.82.968-1.864 1.267-4.279 4.496-3.992 10.745.962 20.006.077 29.825-4.724a45.269 45.269 0 0 0 3.297-1.79l-5.222-35.892z" style="fill-rule:evenodd;clip-rule:evenodd;" fill="#074784" data-original="#074784" class=""></path><path d="M224.962 369.627a33.61 33.61 0 0 1-2.436-.968c-4.556-2.047-9.332-5.022-13.102-8.308-4.455-3.878-9.223-8.837-12.132-14.031-1.683-3.008-3.403-3.236-6.586-2.625-29.971 5.73-53.147-10.6-57.377-40.352-.511-3.587-1.204-5.752-5.491-6.321-12.667-1.681-24.556-11.306-30.607-22.406-7.005-12.842-7.682-25.565-3.137-38.773 1.207-3.529 1.166-5.389-1.566-7.498-15.926-12.242-19.74-29.039-17.019-47.726 1.337-9.226 7.304-16.617 13.491-23.268 2.683-2.892 2.441-5.011 1.174-7.911-8.394-19.183-4.912-36.704 8.119-52.412 5.233-6.308 13.039-9.465 20.645-11.989 3.925-1.301 4.431-3.342 4.154-6.487-2.213-24.573 22.703-49.149 49.597-45.325 5.654.801 8.068-1.365 11.221-6.61 13.651-22.739 38.642-28.776 61.34-18.752 4.354 1.926 6.948 2.269 11.232-.533 20.528-13.391 51.652-8.315 64.599 14.214 2.868 4.995 6.956 3.192 10.501 2.631 20.017-3.151 35.981 3.107 47.852 19.635 4.458 6.204 6.154 13.367 7.222 20.691.427 2.917.497 4.751 4.368 5.347 26.842 4.162 45.53 33.532 35.345 60.503-2.838 7.523 4.172 9.676 7.459 12.841 6.877 6.608 10.919 14.634 12.569 23.284 2.797 14.617.318 28.658-10.414 40.055-3.642 3.877-5.099 6.454-2.104 12.537 3.914 7.963 4.344 17.624 4.181 26.84-2.041 8.7-4.572 17.046-11.134 23.422-5.735 5.578-13.205 9.014-20.169 12.755-3.344 1.79-4.8 3.102-5.178 6.884-1.259 12.69-5.023 24.487-14.48 33.691-3.091 3.013-6.719 5.402-10.59 7.289-9.818 4.796-19.077 5.685-29.824 4.724-3.229-.291-3.528 2.123-4.496 3.992-13.814 26.784-41.73 35.001-67.466 19.819-2.272-1.343-4.083-3.494-7.057-.647-10.757 10.304-28.126 16.837-42.704 11.788z" style="fill-rule:evenodd;clip-rule:evenodd;" fill="#f9d555" data-original="#f9d555" class=""></path><path d="M401.139 186.033c4.257 78.152-67.252 142.07-141.963 140.63-74.058-1.442-138.475-63.328-138.399-142.353.071-74.352 64.493-139.677 141.403-139.628 72.474.06 143.947 64.65 138.959 141.351z" style="fill-rule:evenodd;clip-rule:evenodd;" fill="#f18545" data-original="#f18545" class=""></path><path d="M363.837 194.552c8.198-5.575 7.203-12.681-2.207-15.793l-35.522-11.745c-9.416-3.115-19.384-13.446-22.154-22.969l-10.457-35.915c-2.77-9.521-9.843-10.772-15.714-2.782l-22.146 30.141c-5.869 7.987-18.78 14.275-28.691 13.965l-37.395-1.159c-9.911-.31-13.284 6.03-7.5 14.082l21.822 30.374c5.785 8.051 7.774 22.275 4.417 31.604l-12.656 35.214c-3.357 9.333 1.628 14.503 11.077 11.487l35.644-11.37c9.449-3.013 23.586-.508 31.426 5.564l29.566 22.915c7.837 6.069 14.29 2.93 14.344-6.987l.201-37.414c.055-9.912 6.804-22.589 15.002-28.164l30.943-21.048z" style="fill-rule:evenodd;clip-rule:evenodd;" fill="#074784" data-original="#074784" class=""></path><path d="M179.192 281.401c31.044 15.675 65.259 22.623 99.939 21.911l5.8-.122c1.881-.12 3.719-.231 5.491-.34.892-.045 1.761-.091 2.62-.133l2.514-.276c3.286-.351 6.334-.538 8.995-1.014 2.664-.447 5.048-.606 6.95-1.063 1.914-.399 3.45-.63 4.488-.824l1.604-.261s-.511.276-1.471.801c-.97.496-2.384 1.275-4.216 2.165-1.818.98-4.099 1.831-6.719 2.853-1.316.481-2.702 1.11-4.203 1.541l-4.724 1.412c-.826.239-1.669.483-2.528.726-.867.194-1.751.387-2.65.583l-5.586 1.169c-18.659 3.9-39.727 2.19-58.009-2.737-17.898-4.826-34.792-13.722-48.295-26.391zM313.152 68.161l-1.707-.22c-1.109-.168-2.745-.361-4.817-.719-2.077-.423-4.583-.561-7.41-.87-1.419-.136-2.919-.326-4.501-.44-1.588-.069-3.259-.143-5.002-.222-40.912-1.856-82.712 8.328-118.955 27.177 29.063-29.465 78.901-42.632 118.894-32.731l.104.026c1.786.408 3.498.795 5.127 1.166 1.631.459 3.175.981 4.621 1.424 2.892.878 5.377 1.703 7.361 2.623 2.012.829 3.575 1.568 4.648 2.032l1.637.754z" style="" fill="#ffa3ab" data-original="#ffa3ab"></path><path d="M128.252 229.982s-1.028-1.499-2.43-4.353c-.65-1.435-1.541-3.172-2.278-5.25-.389-1.037-.799-2.143-1.239-3.31-.389-1.178-.756-2.429-1.158-3.736-.429-1.303-.739-2.687-1.087-4.118-6.496-26.721-2.075-57.001 11.928-80.718.945-1.6 1.981-3.143 2.968-4.717.837-1.335 1.566-2.343 2.028-3.045.487-.689.745-1.06.745-1.06s-.103.444-.299 1.276c-.212.818-.484 2.039-.913 3.543-.419 1.507-.902 3.338-1.549 5.393-.318 1.026-.655 2.12-.892 3.315-.283 1.172-.582 2.403-.892 3.69-.332 1.271-.674 2.596-1.028 3.97-.185.681-.375 1.371-.565 2.075-6.73 24.884-7.684 51.102-4.86 76.635.237 2.139.522 3.996.723 5.547.266 1.526.402 2.765.576 3.58.146.835.222 1.283.222 1.283zM354.198 291.256s1.03-1.276 2.832-3.515c.897-1.103 1.932-2.495 3.147-4.039 14.795-18.802 27.356-40.097 35.18-62.778.397-1.221.777-2.404 1.142-3.538.381-1.139.75-2.23 1.104-3.269.348-1.041.755-2.022.978-2.972.5-1.888 1.006-3.539 1.413-4.911.386-1.373.772-2.45 1.006-3.188.25-.739.386-1.136.386-1.136s.038.412.103 1.179c.049.769.163 1.903.209 3.345.057 1.444.147 3.206.171 5.238.011 2.027-.277 4.279-.487 6.769-.133 1.242-.269 2.537-.416 3.88-.182 1.335-.522 2.683-.794 4.091-3.583 18.571-13.259 36.449-26.563 49.88-2.011 2.031-3.936 3.918-5.839 5.526-1.854 1.656-3.681 3.036-5.282 4.257a78.676 78.676 0 0 1-4.325 2.943c-2.448 1.552-3.965 2.238-3.965 2.238z" style="" fill="#074784" data-original="#074784" class=""></path><path d="M89.928 438.999s.079-.408.22-1.177c.16-.753.364-1.888.68-3.274.598-2.779 1.566-6.787 2.884-11.369 2.607-9.216 6.711-20.914 11.522-31.684a227.087 227.087 0 0 1 3.691-7.869c.62-1.286 1.267-2.51 1.903-3.725.636-1.214 1.256-2.423 1.908-3.544a118.997 118.997 0 0 1 3.784-6.404c1.218-1.992 2.468-3.712 3.588-5.317a81.408 81.408 0 0 1 3.205-4.051 61.517 61.517 0 0 1 2.59-2.722c.734-.691 1.332-1.136 1.729-1.476.397-.313.609-.477.609-.477s-.152.34-.446.988c-.299.614-.718 1.566-1.272 2.662-.538 1.148-1.158 2.61-1.903 4.16a804.57 804.57 0 0 1-2.403 5.37c-3.458 7.853-8.073 18.329-12.694 28.807-1.163 2.59-2.335 5.19-3.488 7.751-1.15 2.57-2.297 5.08-3.417 7.494-1.098 2.446-2.213 4.754-3.24 6.982-1.06 2.207-2.055 4.291-2.974 6.215-.941 1.907-1.808 3.659-2.574 5.214-.788 1.545-1.479 2.888-2.05 3.997-.563 1.131-1.046 1.971-1.356 2.561-.322.581-.496.888-.496.888zM381.802 460.831l.1-1.193c.046-.768.152-1.916.212-3.338a172.3 172.3 0 0 0 .239-11.729c-.06-9.575-.913-21.944-2.691-33.605-.44-2.91-.941-5.783-1.468-8.565-.256-1.401-.554-2.758-.843-4.098-.291-1.336-.568-2.668-.897-3.924a119.634 119.634 0 0 0-1.949-7.176c-.644-2.245-1.395-4.234-2.047-6.082a79.732 79.732 0 0 0-2.017-4.756 57.562 57.562 0 0 0-1.772-3.313c-.527-.856-.984-1.452-1.272-1.881-.299-.408-.462-.622-.462-.622s.06.37.168 1.072c.125.673.272 1.702.517 2.903.215 1.25.424 2.819.728 4.514.264 1.729.56 3.686.892 5.817l4.588 31.144c.435 2.807.87 5.627 1.305 8.398a519.89 519.89 0 0 0 1.299 8.136c.413 2.652.875 5.169 1.272 7.589.435 2.412.837 4.685 1.218 6.783.397 2.092.767 4.004 1.093 5.708.353 1.7.661 3.175.919 4.398.236 1.237.478 2.181.622 2.831l.246.989z" style="" fill="#7befe5" data-original="#7befe5" class=""></path><path d="M363.875 441.591a6.135 6.135 0 0 1-6.589 5.659 6.138 6.138 0 0 1-5.654-6.59c.256-3.377 3.208-5.909 6.589-5.654a6.142 6.142 0 0 1 5.654 6.585zM153.858 383.671c-.261 3.384-3.208 5.918-6.589 5.658a6.14 6.14 0 0 1 .929-12.243 6.143 6.143 0 0 1 5.66 6.585z" style="fill-rule:evenodd;clip-rule:evenodd;" fill="#ffffff" data-original="#ffffff" class=""></path><path d="M352.464 405.81a7.77 7.77 0 0 1-15.494-1.176 7.769 7.769 0 0 1 8.34-7.156 7.766 7.766 0 0 1 7.154 8.332zM186.969 465.842a7.769 7.769 0 0 1-8.337 7.157 7.767 7.767 0 0 1-7.157-8.335c.323-4.278 4.058-7.481 8.337-7.156a7.769 7.769 0 0 1 7.157 8.334z" style="fill-rule:evenodd;clip-rule:evenodd;" fill="#7befe5" data-original="#7befe5" class=""></path><path d="M125.996 418.376a5.234 5.234 0 1 1-10.439-.795 5.234 5.234 0 0 1 10.439.795zM285.225 472.124a5.235 5.235 0 0 1-5.616 4.821 5.23 5.23 0 0 1-4.817-5.615 5.226 5.226 0 0 1 5.61-4.822 5.234 5.234 0 0 1 4.823 5.616zM181.889 386.278c5.975 17.489 14.556 23.026 26.177 20.88-11.063 4.719-14.852 14.766-10.082 32.546-6.064-16.94-14.078-24.194-26.152-21.284 10.742-5.029 14.754-14.566 10.057-32.142z" style="fill-rule:evenodd;clip-rule:evenodd;" fill="#074784" data-original="#074784" class=""></path><path d="M304.084 396.021c.215 18.234 6.393 26.06 17.663 27.612-11.531 1.029-18.011 9.29-18.987 27.434-.459-17.753-5.605-27.011-17.519-27.988 11.33-1.421 17.865-9.135 18.843-27.058z" style="fill-rule:evenodd;clip-rule:evenodd;" fill="#ffffff" data-original="#ffffff" class=""></path><path d="M355.391 183.043c8.201-5.575 7.206-12.682-2.21-15.796l-35.519-11.745c-9.413-3.112-19.384-13.444-22.154-22.968l-10.457-35.916c-2.773-9.518-9.84-10.771-15.714-2.78l-22.143 30.141c-5.869 7.987-18.783 14.275-28.691 13.966l-37.397-1.162c-9.911-.31-13.281 6.03-7.5 14.082l21.822 30.375c5.784 8.05 7.771 22.273 4.417 31.605l-12.656 35.212c-3.354 9.332 1.631 14.501 11.077 11.487l35.644-11.372c9.449-3.012 23.589-.51 31.428 5.566l29.564 22.915c7.837 6.067 14.292 2.927 14.344-6.987l.204-37.415c.049-9.912 6.801-22.587 14.999-28.165l30.942-21.043z" style="fill-rule:evenodd;clip-rule:evenodd;" fill="#7befe5" data-original="#7befe5" class=""></path><path d="M306.014 183.66c3.678-2.501 3.229-5.689-.99-7.086l-15.929-5.265c-4.224-1.397-8.696-6.03-9.938-10.301l-4.689-16.108c-1.242-4.269-4.414-4.829-7.048-1.246l-9.932 13.519c-2.631 3.58-8.421 6.4-12.868 6.264l-16.766-.524c-4.447-.139-5.961 2.706-3.365 6.317l9.786 13.622c2.593 3.609 3.485 9.99 1.982 14.172l-5.678 15.796c-1.501 4.183.734 6.499 4.969 5.15l15.989-5.098c4.235-1.351 10.577-.228 14.091 2.494l13.26 10.278c3.512 2.718 6.41 1.313 6.431-3.136l.092-16.774c.022-4.451 3.05-10.134 6.728-12.634l13.875-9.44z" style="fill-rule:evenodd;clip-rule:evenodd;" fill="#29adfc" data-original="#29adfc"></path><path d="M279.751 102.489s.291.449.712 1.248c.427.795.984 1.952 1.577 3.35.293.699.593 1.464.886 2.274l.96 2.509a71.58 71.58 0 0 1 1.751 5.487c1.172 3.781 1.946 7.678 2.381 10.68.198 1.502.302 2.775.34 3.682.041.904.019 1.435.019 1.435s-.334-.411-.835-1.166a41.384 41.384 0 0 1-1.903-3.182 42.494 42.494 0 0 1-2.185-4.681 73.398 73.398 0 0 1-1.957-5.563 69.85 69.85 0 0 1-1.319-5.805c-.375-1.873-.516-3.619-.568-5.136-.049-1.518-.033-2.797.022-3.704.043-.897.119-1.428.119-1.428zM272.545 101.863s-.103.523-.356 1.393c-.245.87-.647 2.088-1.19 3.507a48.045 48.045 0 0 1-.941 2.251c-.334.784-.688 1.616-1.049 2.472a72.796 72.796 0 0 1-2.555 5.165c-1.783 3.532-3.928 6.873-5.703 9.337a42.084 42.084 0 0 1-2.308 2.887c-.601.679-.984 1.045-.984 1.045s.046-.527.209-1.417c.158-.889.435-2.144.84-3.611a42.94 42.94 0 0 1 1.677-4.886 73.542 73.542 0 0 1 2.454-5.363 70.665 70.665 0 0 1 3.08-5.093 31.35 31.35 0 0 1 3.161-4.09 40.892 40.892 0 0 1 2.585-2.653c.658-.614 1.08-.944 1.08-.944zM301.41 229.422s.185.482.424 1.318c.247.84.541 2.038.818 3.474.552 2.876.908 6.71.911 10.544.005 3.833-.354 7.665-.908 10.54a37.402 37.402 0 0 1-.818 3.475c-.242.837-.427 1.316-.427 1.316s-.19-.478-.432-1.316a37.58 37.58 0 0 1-.821-3.475c-.552-2.874-.911-6.707-.905-10.54 0-3.834.361-7.668.913-10.544.274-1.437.571-2.634.816-3.474.238-.836.429-1.318.429-1.318zM320.524 192.907s.337-.39.962-.998a38.494 38.494 0 0 1 2.68-2.356c2.272-1.84 5.485-3.963 8.867-5.772 3.381-1.809 6.926-3.3 9.726-4.166a37.81 37.81 0 0 1 3.452-.915c.851-.182 1.362-.243 1.362-.243s-.334.394-.959 1.002a38.2 38.2 0 0 1-2.68 2.361c-2.272 1.84-5.485 3.962-8.867 5.763-3.384 1.805-6.937 3.296-9.731 4.164a38.756 38.756 0 0 1-3.447.917c-.854.181-1.365.243-1.365.243zM270.444 241.965s.462.229 1.207.683c.75.451 1.778 1.135 2.952 2.005 2.354 1.744 5.213 4.325 7.807 7.144 2.599 2.819 4.931 5.884 6.469 8.372a38.418 38.418 0 0 1 1.748 3.114c.389.781.574 1.258.574 1.258s-.462-.223-1.207-.678a37.958 37.958 0 0 1-2.957-2.002c-2.349-1.741-5.205-4.323-7.796-7.146-2.593-2.823-4.925-5.888-6.467-8.377a40.23 40.23 0 0 1-1.751-3.11 18.06 18.06 0 0 1-.579-1.263zM318.98 165.627s.505-.092 1.375-.174a38.23 38.23 0 0 1 3.564-.158c2.927-.008 6.76.351 10.528 1.057 3.767.708 7.47 1.768 10.188 2.842a39.892 39.892 0 0 1 3.262 1.452c.783.393 1.218.666 1.218.666s-.505.095-1.375.177c-.87.089-2.098.158-3.566.16-2.925.012-6.757-.347-10.525-1.063-3.767-.712-7.464-1.774-10.188-2.848a38.136 38.136 0 0 1-3.262-1.447c-.784-.389-1.219-.664-1.219-.664zM186.874 143.638s.495-.136 1.354-.295c.859-.163 2.08-.341 3.537-.474 2.911-.266 6.766-.25 10.582.121 3.811.372 7.592 1.102 10.4 1.931 1.403.414 2.566.829 3.376 1.158.81.318 1.27.553 1.27.553s-.497.141-1.354.3c-.856.163-2.08.343-3.536.476-2.917.269-6.766.252-10.579-.129-3.816-.377-7.595-1.108-10.4-1.933a38.316 38.316 0 0 1-3.381-1.155c-.812-.319-1.269-.553-1.269-.553zM181.163 151.321s.478.181 1.266.556c.791.37 1.884.945 3.145 1.689 2.517 1.494 5.622 3.766 8.497 6.307 2.87 2.539 5.502 5.348 7.29 7.665a37.327 37.327 0 0 1 2.055 2.919c.467.733.701 1.192.701 1.192s-.481-.175-1.272-.549a40.152 40.152 0 0 1-3.142-1.69c-2.52-1.494-5.627-3.767-8.492-6.312-2.87-2.543-5.502-5.352-7.29-7.67a39.244 39.244 0 0 1-2.058-2.914c-.467-.736-.7-1.193-.7-1.193zM196.991 241.965s.035-.512.163-1.373c.125-.866.356-2.08.701-3.501.699-2.841 1.971-6.475 3.566-9.964 1.593-3.486 3.515-6.82 5.213-9.205a38.14 38.14 0 0 1 2.194-2.815c.565-.662.935-1.018.935-1.018s-.024.511-.155 1.377a38.765 38.765 0 0 1-.701 3.499c-.696 2.844-1.968 6.479-3.569 9.96-1.601 3.484-3.523 6.821-5.216 9.204a41.425 41.425 0 0 1-2.191 2.82c-.57.66-.94 1.016-.94 1.016zM205.206 250.184s.342-.386.973-.983a39.022 39.022 0 0 1 2.713-2.32c2.305-1.805 5.545-3.879 8.954-5.642 3.406-1.76 6.975-3.197 9.786-4.026a38.1 38.1 0 0 1 3.463-.859c.854-.173 1.365-.224 1.365-.224s-.337.386-.973.986a38.129 38.129 0 0 1-2.713 2.32c-2.303 1.81-5.545 3.883-8.954 5.635-3.406 1.753-6.981 3.192-9.786 4.022a39.23 39.23 0 0 1-3.463.866c-.854.169-1.365.225-1.365.225z" style="" fill="#ffffff" data-original="#ffffff" class=""></path></g></svg>